<svg width="264" height="56" viewBox="0 0 264 56" fill="none" xmlns="http://www.w3.org/2000/svg">
<rect width="264" height="56" rx="4" fill="#4786F2"/>
<path d="M78.4253 31.2695C78.4253 30.7161 78.23 30.293 77.8394 30C77.4487 29.7005 76.7456 29.388 75.73 29.0625C74.7144 28.7305 73.9103 28.4049 73.3179 28.0859C71.7033 27.2135 70.896 26.0384 70.896 24.5605C70.896 23.7923 71.1108 23.1087 71.5405 22.5098C71.9767 21.9043 72.5985 21.4323 73.4058 21.0938C74.2196 20.7552 75.131 20.5859 76.1401 20.5859C77.1558 20.5859 78.0607 20.7715 78.855 21.1426C79.6493 21.5072 80.2645 22.0247 80.7007 22.6953C81.1434 23.3659 81.3647 24.1276 81.3647 24.9805H78.4351C78.4351 24.3294 78.23 23.8249 77.8198 23.4668C77.4097 23.1022 76.8335 22.9199 76.0913 22.9199C75.3752 22.9199 74.8185 23.0729 74.4214 23.3789C74.0243 23.6784 73.8257 24.0755 73.8257 24.5703C73.8257 25.0326 74.0568 25.4199 74.519 25.7324C74.9878 26.0449 75.6746 26.3379 76.5796 26.6113C78.2463 27.1126 79.4604 27.7344 80.2222 28.4766C80.9839 29.2188 81.3647 30.1432 81.3647 31.25C81.3647 32.4805 80.8993 33.4473 79.9683 34.1504C79.0373 34.847 77.784 35.1953 76.2085 35.1953C75.1147 35.1953 74.1187 34.9967 73.2202 34.5996C72.3218 34.196 71.6349 33.6458 71.1597 32.9492C70.6909 32.2526 70.4565 31.4453 70.4565 30.5273H73.396C73.396 32.0964 74.3335 32.8809 76.2085 32.8809C76.9051 32.8809 77.4487 32.7409 77.8394 32.4609C78.23 32.1745 78.4253 31.7773 78.4253 31.2695ZM86.1499 35H83.3179V24.4336H86.1499V35ZM83.1519 21.6992C83.1519 21.276 83.2918 20.9277 83.5718 20.6543C83.8582 20.3809 84.2456 20.2441 84.7339 20.2441C85.2157 20.2441 85.5998 20.3809 85.8862 20.6543C86.1727 20.9277 86.3159 21.276 86.3159 21.6992C86.3159 22.1289 86.1694 22.4805 85.8765 22.7539C85.59 23.0273 85.2091 23.1641 84.7339 23.1641C84.2586 23.1641 83.8745 23.0273 83.5815 22.7539C83.2951 22.4805 83.1519 22.1289 83.1519 21.6992ZM88.0737 29.6387C88.0737 28.0176 88.4578 26.7122 89.2261 25.7227C90.0008 24.7331 91.0425 24.2383 92.3511 24.2383C93.5099 24.2383 94.4116 24.6354 95.0562 25.4297L95.1733 24.4336H97.7319V34.6484C97.7319 35.5729 97.5203 36.377 97.0972 37.0605C96.6805 37.7441 96.0913 38.265 95.3296 38.623C94.5679 38.9811 93.6759 39.1602 92.6538 39.1602C91.8791 39.1602 91.1239 39.0039 90.3882 38.6914C89.6525 38.3854 89.0959 37.9883 88.7183 37.5L89.9683 35.7812C90.6714 36.569 91.5243 36.9629 92.5269 36.9629C93.2756 36.9629 93.8582 36.7611 94.2749 36.3574C94.6916 35.9603 94.8999 35.3939 94.8999 34.6582V34.0918C94.2489 34.8275 93.3927 35.1953 92.3315 35.1953C91.062 35.1953 90.0334 34.7005 89.2456 33.7109C88.4644 32.7148 88.0737 31.3965 88.0737 29.7559V29.6387ZM90.896 29.8438C90.896 30.8008 91.0881 31.5527 91.4722 32.0996C91.8563 32.64 92.3836 32.9102 93.0542 32.9102C93.9136 32.9102 94.5288 32.5879 94.8999 31.9434V27.5C94.5223 26.8555 93.9136 26.5332 93.0737 26.5332C92.3966 26.5332 91.8628 26.8099 91.4722 27.3633C91.0881 27.9167 90.896 28.7435 90.896 29.8438ZM102.507 24.4336L102.595 25.6543C103.35 24.7103 104.363 24.2383 105.632 24.2383C106.752 24.2383 107.585 24.5671 108.132 25.2246C108.679 25.8822 108.959 26.8652 108.972 28.1738V35H106.15V28.2422C106.15 27.6432 106.02 27.2103 105.759 26.9434C105.499 26.6699 105.066 26.5332 104.46 26.5332C103.666 26.5332 103.07 26.8717 102.673 27.5488V35H99.8511V24.4336H102.507ZM119.08 35H116.248V24.4336H119.08V35ZM116.082 21.6992C116.082 21.276 116.222 20.9277 116.501 20.6543C116.788 20.3809 117.175 20.2441 117.664 20.2441C118.145 20.2441 118.529 20.3809 118.816 20.6543C119.102 20.9277 119.246 21.276 119.246 21.6992C119.246 22.1289 119.099 22.4805 118.806 22.7539C118.52 23.0273 118.139 23.1641 117.664 23.1641C117.188 23.1641 116.804 23.0273 116.511 22.7539C116.225 22.4805 116.082 22.1289 116.082 21.6992ZM124.011 24.4336L124.099 25.6543C124.854 24.7103 125.867 24.2383 127.136 24.2383C128.256 24.2383 129.089 24.5671 129.636 25.2246C130.183 25.8822 130.463 26.8652 130.476 28.1738V35H127.654V28.2422C127.654 27.6432 127.524 27.2103 127.263 26.9434C127.003 26.6699 126.57 26.5332 125.964 26.5332C125.17 26.5332 124.574 26.8717 124.177 27.5488V35H121.355V24.4336H124.011ZM146.794 31.1621L148.181 24.4336H150.906L148.21 35H145.847L143.845 28.3496L141.843 35H139.49L136.794 24.4336H139.519L140.896 31.1523L142.83 24.4336H144.871L146.794 31.1621ZM155.291 35H152.458V24.4336H155.291V35ZM152.292 21.6992C152.292 21.276 152.432 20.9277 152.712 20.6543C152.999 20.3809 153.386 20.2441 153.875 20.2441C154.356 20.2441 154.74 20.3809 155.027 20.6543C155.313 20.9277 155.457 21.276 155.457 21.6992C155.457 22.1289 155.31 22.4805 155.017 22.7539C154.731 23.0273 154.35 23.1641 153.875 23.1641C153.399 23.1641 153.015 23.0273 152.722 22.7539C152.436 22.4805 152.292 22.1289 152.292 21.6992ZM161.003 21.8359V24.4336H162.81V26.5039H161.003V31.7773C161.003 32.168 161.078 32.4479 161.228 32.6172C161.378 32.7865 161.664 32.8711 162.087 32.8711C162.4 32.8711 162.677 32.8483 162.917 32.8027V34.9414C162.364 35.1107 161.794 35.1953 161.208 35.1953C159.229 35.1953 158.22 34.196 158.181 32.1973V26.5039H156.638V24.4336H158.181V21.8359H161.003ZM167.136 25.5859C167.885 24.6875 168.826 24.2383 169.958 24.2383C172.25 24.2383 173.412 25.5697 173.445 28.2324V35H170.623V28.3105C170.623 27.7051 170.492 27.2591 170.232 26.9727C169.972 26.6797 169.539 26.5332 168.933 26.5332C168.106 26.5332 167.507 26.8522 167.136 27.4902V35H164.314V20H167.136V25.5859ZM191.99 33.2031C191.462 33.8346 190.717 34.3262 189.753 34.6777C188.79 35.0228 187.722 35.1953 186.55 35.1953C185.32 35.1953 184.239 34.9284 183.308 34.3945C182.384 33.8542 181.667 33.0729 181.16 32.0508C180.658 31.0286 180.401 29.8275 180.388 28.4473V27.4805C180.388 26.0612 180.626 24.834 181.101 23.7988C181.583 22.7572 182.273 21.9629 183.171 21.416C184.076 20.8626 185.134 20.5859 186.345 20.5859C188.031 20.5859 189.35 20.9896 190.3 21.7969C191.251 22.5977 191.814 23.7663 191.99 25.3027H189.138C189.008 24.4889 188.718 23.8932 188.269 23.5156C187.826 23.138 187.214 22.9492 186.433 22.9492C185.437 22.9492 184.679 23.3236 184.158 24.0723C183.637 24.821 183.373 25.9342 183.367 27.4121V28.3203C183.367 29.8112 183.65 30.9375 184.216 31.6992C184.783 32.4609 185.613 32.8418 186.707 32.8418C187.807 32.8418 188.591 32.6074 189.06 32.1387V29.6875H186.394V27.5293H191.99V33.2031ZM193.748 29.6191C193.748 28.571 193.949 27.6367 194.353 26.8164C194.757 25.9961 195.336 25.3613 196.091 24.9121C196.853 24.4629 197.735 24.2383 198.738 24.2383C200.164 24.2383 201.326 24.6745 202.224 25.5469C203.129 26.4193 203.634 27.6042 203.738 29.1016L203.757 29.8242C203.757 31.4453 203.305 32.7474 202.4 33.7305C201.495 34.707 200.281 35.1953 198.757 35.1953C197.234 35.1953 196.016 34.707 195.105 33.7305C194.2 32.7539 193.748 31.4258 193.748 29.7461V29.6191ZM196.57 29.8242C196.57 30.8268 196.759 31.5951 197.136 32.1289C197.514 32.6562 198.054 32.9199 198.757 32.9199C199.441 32.9199 199.975 32.6595 200.359 32.1387C200.743 31.6113 200.935 30.7715 200.935 29.6191C200.935 28.6361 200.743 27.8743 200.359 27.334C199.975 26.7936 199.434 26.5234 198.738 26.5234C198.048 26.5234 197.514 26.7936 197.136 27.334C196.759 27.8678 196.57 28.6979 196.57 29.8242ZM205.056 29.6191C205.056 28.571 205.258 27.6367 205.662 26.8164C206.065 25.9961 206.645 25.3613 207.4 24.9121C208.162 24.4629 209.044 24.2383 210.046 24.2383C211.472 24.2383 212.634 24.6745 213.533 25.5469C214.438 26.4193 214.942 27.6042 215.046 29.1016L215.066 29.8242C215.066 31.4453 214.613 32.7474 213.708 33.7305C212.804 34.707 211.589 35.1953 210.066 35.1953C208.542 35.1953 207.325 34.707 206.414 33.7305C205.509 32.7539 205.056 31.4258 205.056 29.7461V29.6191ZM207.878 29.8242C207.878 30.8268 208.067 31.5951 208.445 32.1289C208.822 32.6562 209.363 32.9199 210.066 32.9199C210.75 32.9199 211.283 32.6595 211.667 32.1387C212.052 31.6113 212.244 30.7715 212.244 29.6191C212.244 28.6361 212.052 27.8743 211.667 27.334C211.283 26.7936 210.743 26.5234 210.046 26.5234C209.356 26.5234 208.822 26.7936 208.445 27.334C208.067 27.8678 207.878 28.6979 207.878 29.8242ZM216.394 29.6387C216.394 28.0176 216.778 26.7122 217.546 25.7227C218.321 24.7331 219.363 24.2383 220.671 24.2383C221.83 24.2383 222.732 24.6354 223.376 25.4297L223.494 24.4336H226.052V34.6484C226.052 35.5729 225.841 36.377 225.417 37.0605C225.001 37.7441 224.412 38.265 223.65 38.623C222.888 38.9811 221.996 39.1602 220.974 39.1602C220.199 39.1602 219.444 39.0039 218.708 38.6914C217.973 38.3854 217.416 37.9883 217.039 37.5L218.289 35.7812C218.992 36.569 219.845 36.9629 220.847 36.9629C221.596 36.9629 222.179 36.7611 222.595 36.3574C223.012 35.9603 223.22 35.3939 223.22 34.6582V34.0918C222.569 34.8275 221.713 35.1953 220.652 35.1953C219.382 35.1953 218.354 34.7005 217.566 33.7109C216.785 32.7148 216.394 31.3965 216.394 29.7559V29.6387ZM219.216 29.8438C219.216 30.8008 219.408 31.5527 219.792 32.0996C220.177 32.64 220.704 32.9102 221.375 32.9102C222.234 32.9102 222.849 32.5879 223.22 31.9434V27.5C222.843 26.8555 222.234 26.5332 221.394 26.5332C220.717 26.5332 220.183 26.8099 219.792 27.3633C219.408 27.9167 219.216 28.7435 219.216 29.8438ZM231.208 35H228.376V20H231.208V35ZM238.406 35.1953C236.856 35.1953 235.593 34.7201 234.617 33.7695C233.647 32.819 233.162 31.5527 233.162 29.9707V29.6973C233.162 28.6361 233.367 27.6888 233.777 26.8555C234.187 26.0156 234.766 25.3711 235.515 24.9219C236.27 24.4661 237.13 24.2383 238.093 24.2383C239.539 24.2383 240.675 24.694 241.501 25.6055C242.335 26.5169 242.751 27.8092 242.751 29.4824V30.6348H236.023C236.114 31.3249 236.388 31.8783 236.843 32.2949C237.306 32.7116 237.888 32.9199 238.591 32.9199C239.679 32.9199 240.528 32.526 241.14 31.7383L242.527 33.291C242.104 33.89 241.531 34.3587 240.808 34.6973C240.085 35.0293 239.285 35.1953 238.406 35.1953ZM238.083 26.5234C237.524 26.5234 237.068 26.7122 236.716 27.0898C236.371 27.4674 236.15 28.0078 236.052 28.7109H239.978V28.4863C239.965 27.8613 239.796 27.3796 239.47 27.041C239.145 26.696 238.682 26.5234 238.083 26.5234Z" fill="white"/>
<g filter="url(#filter0_dd)">
<path d="M51.1827 1.78259H4.38271C2.94677 1.78259 1.78271 2.94665 1.78271 4.38259V51.1826C1.78271 52.6185 2.94677 53.7826 4.38271 53.7826H51.1827C52.6187 53.7826 53.7827 52.6185 53.7827 51.1826V4.38259C53.7827 2.94665 52.6187 1.78259 51.1827 1.78259Z" fill="white"/>
</g>
<path fill-rule="evenodd" clip-rule="evenodd" d="M39.0145 28.0486C39.0145 27.2189 38.94 26.4212 38.8017 25.6554H27.7825V30.1812H34.0792C33.808 31.6437 32.9837 32.8828 31.7445 33.7124V36.6481H35.5257C37.7381 34.6112 39.0145 31.6118 39.0145 28.0486Z" fill="#4285F4"/>
<path fill-rule="evenodd" clip-rule="evenodd" d="M27.7827 39.4826C30.9417 39.4826 33.5901 38.4349 35.526 36.648L31.7447 33.7124C30.6971 34.4144 29.3569 34.8292 27.7827 34.8292C24.7354 34.8292 22.1561 32.7711 21.236 30.0056H17.3271V33.037C19.2523 36.8608 23.2091 39.4826 27.7827 39.4826Z" fill="#34A853"/>
<path fill-rule="evenodd" clip-rule="evenodd" d="M21.2361 30.0057C21.0021 29.3037 20.8691 28.5538 20.8691 27.7827C20.8691 27.0115 21.0021 26.2617 21.2361 25.5597V22.5283H17.3272C16.5348 24.1078 16.0828 25.8947 16.0828 27.7827C16.0828 29.6706 16.5348 31.4575 17.3272 33.037L21.2361 30.0057Z" fill="#FBBC05"/>
<path fill-rule="evenodd" clip-rule="evenodd" d="M27.7827 20.7361C29.5005 20.7361 31.0427 21.3264 32.2553 22.4857L35.6111 19.13C33.5848 17.242 30.9364 16.0826 27.7827 16.0826C23.2091 16.0826 19.2523 18.7045 17.3271 22.5283L21.236 25.5596C22.1561 22.7942 24.7354 20.7361 27.7827 20.7361Z" fill="#EA4335"/>
<defs>
<filter id="filter0_dd" x="0.782715" y="0.782593" width="54" height="55" filterUnits="userSpaceOnUse" color-interpolation-filters="sRGB">
<feFlood flood-opacity="0" result="BackgroundImageFix"/>
<feColorMatrix in="SourceAlpha" type="matrix" values="0 0 0 0 0 0 0 0 0 0 0 0 0 0 0 0 0 0 127 0"/>
<feOffset dy="1"/>
<feGaussianBlur stdDeviation="0.5"/>
<feColorMatrix type="matrix" values="0 0 0 0 0 0 0 0 0 0 0 0 0 0 0 0 0 0 0.168 0"/>
<feBlend mode="normal" in2="BackgroundImageFix" result="effect1_dropShadow"/>
<feColorMatrix in="SourceAlpha" type="matrix" values="0 0 0 0 0 0 0 0 0 0 0 0 0 0 0 0 0 0 127 0"/>
<feOffset/>
<feGaussianBlur stdDeviation="0.5"/>
<feColorMatrix type="matrix" values="0 0 0 0 0 0 0 0 0 0 0 0 0 0 0 0 0 0 0.084 0"/>
<feBlend mode="normal" in2="effect1_dropShadow" result="effect2_dropShadow"/>
<feBlend mode="normal" in="SourceGraphic" in2="effect2_dropShadow" result="shape"/>
</filter>
</defs>
</svg>
