<svg width="32" height="32" viewBox="0 0 32 32" fill="none" xmlns="http://www.w3.org/2000/svg">
<rect width="32" height="32" fill="#F1F1F1"/>
<path d="M10.9999 14.3334C10.0833 14.3334 9.33325 15.0834 9.33325 16C9.33325 16.9167 10.0833 17.6667 10.9999 17.6667C11.9166 17.6667 12.6666 16.9167 12.6666 16C12.6666 15.0834 11.9166 14.3334 10.9999 14.3334ZM20.9999 14.3334C20.0833 14.3334 19.3333 15.0834 19.3333 16C19.3333 16.9167 20.0833 17.6667 20.9999 17.6667C21.9166 17.6667 22.6666 16.9167 22.6666 16C22.6666 15.0834 21.9166 14.3334 20.9999 14.3334ZM15.9999 14.3334C15.0833 14.3334 14.3333 15.0834 14.3333 16C14.3333 16.9167 15.0833 17.6667 15.9999 17.6667C16.9166 17.6667 17.6666 16.9167 17.6666 16C17.6666 15.0834 16.9166 14.3334 15.9999 14.3334Z" fill="#A5A5A5"/>
</svg>
