<svg width="96" height="40" viewBox="0 0 96 40" fill="none" xmlns="http://www.w3.org/2000/svg">
<rect x="0.5" y="0.5" width="95" height="39" rx="1.5" fill="white" stroke="#E5E5E5"/>
<g clip-path="url(#clip0)">
<path d="M21.1487 24.436L18.742 26.842C17.198 28.3853 14.7 28.3853 13.1567 26.842C12.41 26.0967 12 25.1047 12 24.05C12 22.9953 12.41 22.0033 13.156 21.2573L16.4 18.014C17.97 16.444 20.476 16.506 21.9847 18.014C22.2867 18.316 22.5247 18.6627 22.7107 19.032L21.6487 20.0933C21.5287 19.6847 21.3153 19.3007 21.006 18.992C20.0407 18.0267 18.386 17.9853 17.38 18.9913L17.3793 18.9927L14.1347 22.236C13.1347 23.2353 13.1347 24.8633 14.1347 25.8627C15.146 26.874 16.7733 26.8547 17.7627 25.8627L19.3793 24.2467C20.0413 24.436 20.5733 24.47 21.1487 24.436ZM21.256 13.1573L18.8733 15.5413C19.438 15.508 19.9767 15.5413 20.642 15.73L22.2373 14.1373C23.236 13.136 24.864 13.1373 25.864 14.1367C26.8753 15.1487 26.8547 16.776 25.864 17.7647L22.6433 20.9853L22.6413 20.9867C21.6827 21.9447 20.0507 22.0213 19.0153 20.9853C18.7 20.6693 18.492 20.2907 18.378 19.89L18.322 19.9353L17.3107 20.9453C17.4973 21.316 17.734 21.662 18.036 21.964C19.5327 23.4607 22.0387 23.5467 23.6213 21.964L26.8427 18.7433C28.3853 17.1993 28.3867 14.702 26.842 13.1587C25.2973 11.6113 22.7973 11.6167 21.256 13.1573Z" fill="#505050"/>
</g>
<path d="M44.13 14.436H42.688V22.178H44.13V14.436ZM41.372 19.952C39.538 20.26 37.956 20.33 35.786 20.33V18.86H40.112V15.206H34.33V16.368H38.698V17.768H34.358V21.506H35.422C37.844 21.506 39.552 21.45 41.54 21.128L41.372 19.952ZM39.93 25.944C38.124 25.944 37.088 25.524 37.088 24.754C37.088 23.97 38.124 23.55 39.93 23.55C41.75 23.55 42.772 23.97 42.772 24.754C42.772 25.524 41.75 25.944 39.93 25.944ZM39.93 22.416C37.27 22.416 35.66 23.284 35.66 24.754C35.66 26.224 37.27 27.092 39.93 27.092C42.59 27.092 44.214 26.224 44.214 24.754C44.214 23.284 42.59 22.416 39.93 22.416ZM47.5729 19.42L47.7549 20.596L55.2169 20.218C55.1469 21.142 55.0069 22.136 54.7409 23.27L56.1689 23.396C56.7289 20.736 56.7289 19 56.7289 17.166V15.64H47.9229V16.802H55.3149V17.166C55.3149 17.81 55.3149 18.454 55.2869 19.126L47.5729 19.42ZM46.5929 24.25V25.44H58.0169V24.25H46.5929ZM60.7318 24.236H68.0538V27.092H69.4958V23.074H60.7318V24.236ZM62.3698 17.138H67.9978V18.384H62.3698V17.138ZM65.8978 20.834V19.532H69.4258V14.744H67.9978V16.032H62.3698V14.744H60.9418V19.532H64.4418V20.834H59.4438V22.01H70.9098V20.834H65.8978ZM76.7747 15.486H75.3327V17.558C75.3327 19.896 74.1007 22.29 72.1267 23.256L73.0087 24.418C74.4507 23.676 75.5147 22.206 76.0607 20.456C76.6067 22.108 77.6147 23.48 78.9727 24.18L79.8547 23.032C77.9507 22.094 76.7747 19.812 76.7747 17.558V15.486ZM84.1107 19.448H82.1367V14.436H80.6947V27.078H82.1367V20.638H84.1107V19.448Z" fill="#505050"/>
<defs>
<clipPath id="clip0">
<rect width="16" height="16" fill="white" transform="translate(12 12)"/>
</clipPath>
</defs>
</svg>
