<svg width="96" height="40" viewBox="0 0 96 40" fill="none" xmlns="http://www.w3.org/2000/svg">
<rect width="96" height="40" rx="2" fill="#1B95E0"/>
<g clip-path="url(#clip0)">
<path d="M32 13.7975C31.2642 14.1242 30.4733 14.3442 29.6433 14.4434C30.4908 13.9359 31.1417 13.1317 31.4475 12.1734C30.655 12.6434 29.7767 12.985 28.8417 13.1692C28.0942 12.3717 27.0267 11.8734 25.8467 11.8734C23.1975 11.8734 21.2508 14.345 21.8492 16.9109C18.44 16.74 15.4167 15.1067 13.3925 12.6242C12.3175 14.4684 12.835 16.8809 14.6617 18.1025C13.99 18.0809 13.3567 17.8967 12.8042 17.5892C12.7592 19.49 14.1217 21.2684 16.095 21.6642C15.5175 21.8209 14.885 21.8575 14.2417 21.7342C14.7633 23.3642 16.2783 24.55 18.075 24.5834C16.35 25.9359 14.1767 26.54 12 26.2834C13.8158 27.4475 15.9733 28.1267 18.29 28.1267C25.9083 28.1267 30.2125 21.6925 29.9525 15.9217C30.7542 15.3425 31.45 14.62 32 13.7975Z" fill="white"/>
</g>
<path d="M51.032 20.96H43.85V19.518H50.64V18.09H43.85V16.732H50.934V15.248H41.974V22.416H51.032V20.96ZM40.602 24.222V25.72H52.278V24.222H40.602ZM57.6669 16.326C58.6189 16.326 59.2769 16.774 59.2769 17.586C59.2769 18.37 58.6189 18.818 57.6669 18.818C56.7289 18.818 56.0569 18.37 56.0569 17.586C56.0569 16.774 56.7289 16.326 57.6669 16.326ZM57.6669 20.33C59.6129 20.33 61.0409 19.182 61.0409 17.586C61.0409 15.962 59.6129 14.828 57.6669 14.828C55.7209 14.828 54.2789 15.962 54.2789 17.586C54.2789 19.182 55.7209 20.33 57.6669 20.33ZM61.6989 20.652C58.9689 21.058 55.7769 21.086 53.5229 21.086L53.7329 22.598C54.6429 22.598 55.6929 22.584 56.7989 22.542V26.812H58.6469V22.43C59.6969 22.332 60.7749 22.206 61.8109 21.996L61.6989 20.652ZM62.4269 14.31V27.19H64.2749V14.31H62.4269ZM68.7818 20.414H72.4778V18.972H68.7818V16.872H72.9118V15.388H66.9478V24.306H67.9978C70.1678 24.306 71.8198 24.264 73.6818 23.97L73.5138 22.486C71.9318 22.738 70.5178 22.808 68.7818 22.822V20.414ZM75.3338 14.296V18.846H73.1218V20.33H75.3338V27.232H77.1818V14.296H75.3338Z" fill="white"/>
<defs>
<clipPath id="clip0">
<rect width="20" height="20" fill="white" transform="translate(12 10)"/>
</clipPath>
</defs>
</svg>
