<svg width="40" height="40" viewBox="0 0 40 40" fill="none" xmlns="http://www.w3.org/2000/svg">
<circle cx="20" cy="20" r="19.5" stroke="#EFE5FD"/>
<path d="M20 31.1111C21.2223 31.1111 22.2223 30.0855 22.2223 28.8319H17.7778C17.7778 30.0855 18.7778 31.1111 20 31.1111ZM26.6667 24.2735V18.5755C26.6667 15.077 24.8556 12.1482 21.6667 11.3732V10.5983C21.6667 9.65245 20.9223 8.88892 20 8.88892C19.0778 8.88892 18.3334 9.65245 18.3334 10.5983V11.3732C15.1556 12.1482 13.3334 15.0656 13.3334 18.5755V24.2735L11.1111 26.5527V27.6923H28.8889V26.5527L26.6667 24.2735ZM24.4445 25.4131H15.5556V18.5755C15.5556 15.7493 17.2334 13.4473 20 13.4473C22.7667 13.4473 24.4445 15.7493 24.4445 18.5755V25.4131Z" fill="#262626"/>
</svg>
