<svg width="96" height="40" viewBox="0 0 96 40" fill="none" xmlns="http://www.w3.org/2000/svg">
<rect width="96" height="40" rx="2" fill="#4267B2"/>
<path d="M15.5 17.6667H13V21H15.5V31H19.6667V21H22.7017L23 17.6667H19.6667V16.2775C19.6667 15.4817 19.8267 15.1667 20.5958 15.1667H23V11H19.8267C16.83 11 15.5 12.3192 15.5 14.8458V17.6667Z" fill="white"/>
<path d="M36.136 17.236H37.088V22.696C36.78 22.724 36.444 22.738 36.136 22.738V17.236ZM38.74 17.236H39.566V15.766H33.7V17.236H34.484V22.78C34.12 22.78 33.784 22.78 33.476 22.78L33.672 24.278C35.268 24.278 37.872 24.236 39.874 23.802L39.748 22.472C39.44 22.514 39.09 22.542 38.74 22.584V17.236ZM40.476 19.014H39.244V20.624H40.476V26.616H42.198V14.576H40.476V19.014ZM43.038 14.31V27.218H44.788V14.31H43.038ZM55.3149 14.296V27.232H57.1629V14.296H55.3149ZM50.2329 15.206C48.2869 15.206 46.8449 16.97 46.8449 19.798C46.8449 22.64 48.2869 24.418 50.2329 24.418C52.1789 24.418 53.6209 22.64 53.6209 19.798C53.6209 16.97 52.1789 15.206 50.2329 15.206ZM50.2329 16.872C51.1849 16.872 51.8429 17.894 51.8429 19.798C51.8429 21.716 51.1849 22.738 50.2329 22.738C49.2809 22.738 48.6229 21.716 48.6229 19.798C48.6229 17.894 49.2809 16.872 50.2329 16.872ZM70.6298 20.372C67.7178 19.882 66.1218 17.88 66.1218 15.99V15.066H64.1478V15.99C64.1478 17.838 62.5378 19.882 59.6398 20.372L60.4238 21.926C62.6638 21.492 64.3018 20.232 65.1278 18.594C65.9538 20.232 67.6058 21.478 69.8458 21.926L70.6298 20.372ZM59.3598 24.138V25.636H71.0358V24.138H59.3598ZM80.5827 18.174H75.5567V17.166H80.5827V18.174ZM82.4167 14.646H80.5827V15.78H75.5567V14.646H73.7227V19.616H82.4167V14.646ZM83.9007 21.912V20.442H72.2387V21.912H77.1247V23.004H73.5267V24.46H80.6387V27.218H82.4867V23.004H78.9727V21.912H83.9007Z" fill="white"/>
</svg>
