<svg width="91" height="17" viewBox="0 0 91 17" fill="none" xmlns="http://www.w3.org/2000/svg">
<path d="M0.416656 15.5625C0.416656 15.8542 0.56249 16 0.84374 16H3.81249C4.11457 16 4.27082 15.8542 4.27082 15.5625V10.8125H7.33332C9.94791 10.8646 11.9271 8.40625 11.8854 6.01042C11.9271 3.58333 9.89582 1.08333 7.26041 1.14583H0.84374C0.59374 1.14583 0.416656 1.3125 0.416656 1.59375V15.5625ZM4.27082 4.32292H6.42707C7.35416 4.32292 7.95832 5.17708 7.95832 5.98958C7.95832 6.85417 7.37499 7.65625 6.42707 7.65625H4.27082V4.32292Z" fill="#505050"/>
<path d="M14.043 15.5625C14.043 15.8542 14.1888 16 14.47 16H17.4596C17.7513 16 17.8971 15.8542 17.8971 15.5625V11.0625H19.5117L21.8763 15.5833C22.043 15.9167 22.1367 16 22.418 16H26.0221C26.22 16 26.3242 15.875 26.3242 15.7396C26.3242 15.6875 26.3034 15.6354 26.2721 15.5625L23.4075 10.2292C24.1471 9.76042 24.7305 9.15625 25.1784 8.41667C25.6263 7.67708 25.845 6.91667 25.845 6.13542C25.8867 3.64583 23.8242 1.07292 21.1055 1.14583H14.47C14.1888 1.14583 14.043 1.35417 14.043 1.59375V15.5625ZM17.8971 4.23958H20.1159C21.1159 4.23958 21.8971 5.16667 21.8971 6.0625C21.8971 6.98958 21.1471 7.86458 20.1159 7.86458H17.8971V4.23958Z" fill="#505050"/>
<path d="M27.3971 8.57292C27.3971 9.95833 27.7409 11.2292 28.4284 12.3958C29.1159 13.5729 30.043 14.5 31.22 15.1771C32.3867 15.8646 33.6575 16.2083 35.043 16.2083C36.4284 16.2083 37.6992 15.8646 38.8763 15.1771C40.043 14.5 40.97 13.5729 41.6575 12.3958C42.345 11.2292 42.6888 9.95833 42.6888 8.57292C42.6888 7.1875 42.345 5.91667 41.6575 4.73958C40.97 3.57292 40.043 2.64583 38.8763 1.95833C37.6992 1.27083 36.4284 0.927082 35.043 0.927082C33.6575 0.927082 32.3867 1.27083 31.22 1.95833C30.043 2.64583 29.1159 3.57292 28.4284 4.73958C27.7409 5.91667 27.3971 7.1875 27.3971 8.57292ZM31.2409 8.57292C31.1992 6.39583 32.9075 4.5625 35.043 4.60417C37.1992 4.5625 38.8867 6.39583 38.845 8.57292C38.8867 10.7396 37.1992 12.5833 35.043 12.5417C32.9075 12.5833 31.1992 10.7396 31.2409 8.57292Z" fill="#505050"/>
<path d="M56.8476 1.59375C56.8789 1.5 56.8997 1.42708 56.8997 1.375C56.8997 1.21875 56.7851 1.14583 56.5664 1.14583H53.3372C53.0456 1.14583 52.8476 1.29167 52.7435 1.59375L49.7018 10.5521L46.6289 1.59375C46.5351 1.29167 46.3372 1.14583 46.0351 1.14583L42.8476 1.125C42.6289 1.125 42.5143 1.19792 42.5143 1.35417C42.5143 1.40625 42.5351 1.47917 42.5664 1.57292L47.931 15.5625C48.0456 15.8542 48.2539 16 48.5351 16H50.8893C51.1706 16 51.3789 15.8542 51.4935 15.5625L56.8476 1.59375Z" fill="#505050"/>
<path d="M58.7487 15.5625C58.7487 15.8542 58.8945 16 59.1862 16H69.3216C69.6237 16 69.7695 15.8542 69.7695 15.5625V13.0104C69.7695 12.7187 69.6237 12.5729 69.3216 12.5729H62.6133V10.0208H67.5612C67.8841 10.0208 68.0508 9.875 68.0508 9.58333V7.52083C68.0508 7.21875 67.8841 7.0625 67.5612 7.0625H62.6133V4.59375H69.1341C69.4258 4.59375 69.5716 4.44792 69.5716 4.15625V1.59375C69.5716 1.29167 69.4258 1.14583 69.1341 1.14583H59.1862C58.8945 1.14583 58.7487 1.29167 58.7487 1.59375V15.5625Z" fill="#505050"/>
<path d="M72.276 15.5625C72.276 15.8542 72.4219 16 72.7135 16H75.7031C75.9948 16 76.1406 15.8542 76.1406 15.5625V1.59375C76.1406 1.29167 75.9948 1.14583 75.7031 1.14583H72.7135C72.4219 1.14583 72.276 1.29167 72.276 1.59375V15.5625Z" fill="#505050"/>
<path d="M78.5716 4.125C78.5716 4.42708 78.7174 4.57292 79.0091 4.57292H82.5404V15.5625C82.5404 15.8542 82.6862 16 82.9779 16H85.8633C86.1654 16 86.3112 15.8542 86.3112 15.5625V4.57292H89.8633C90.1549 4.57292 90.3008 4.42708 90.3008 4.125V1.59375C90.3008 1.29167 90.1549 1.14583 89.8633 1.14583H79.0091C78.7174 1.14583 78.5716 1.29167 78.5716 1.59375V4.125Z" fill="#505050"/>
</svg>
