<svg width="102" height="18" viewBox="0 0 102 18" fill="none" xmlns="http://www.w3.org/2000/svg">
<path d="M0 17.2393C0 17.5828 0.164274 17.7546 0.481088 17.7546H3.82524C4.16552 17.7546 4.34153 17.5828 4.34153 17.2393V11.6442H7.79128C10.7365 11.7055 12.9659 8.80982 12.919 5.98773C12.9659 3.12884 10.6778 0.184049 7.70915 0.257669H0.481088C0.199476 0.257669 0 0.453988 0 0.785277V17.2393ZM4.34153 4H6.77044C7.81475 4 8.49531 5.00613 8.49531 5.96319C8.49531 6.9816 7.83822 7.92638 6.77044 7.92638H4.34153V4Z" fill="black"/>
<path d="M15.3494 17.2393C15.3494 17.5828 15.5136 17.7546 15.8304 17.7546H19.1981C19.5266 17.7546 19.6909 17.5828 19.6909 17.2393V11.9387H21.5096L24.1732 17.2638C24.361 17.6564 24.4666 17.7546 24.7834 17.7546H28.8433C29.0662 17.7546 29.1836 17.6074 29.1836 17.4479C29.1836 17.3865 29.1601 17.3252 29.1249 17.2393L25.8981 10.9571C26.7312 10.4049 27.3883 9.69325 27.8928 8.82209C28.3974 7.95092 28.6438 7.05521 28.6438 6.13497C28.6908 3.20245 26.3674 0.171779 23.3049 0.257669H15.8304C15.5136 0.257669 15.3494 0.503068 15.3494 0.785277V17.2393ZM19.6909 3.90184H22.1902C23.3166 3.90184 24.1967 4.99387 24.1967 6.04908C24.1967 7.1411 23.3518 8.17178 22.1902 8.17178H19.6909V3.90184Z" fill="black"/>
<path d="M30.3922 9.00613C30.3922 10.638 30.7794 12.135 31.5538 13.5092C32.3282 14.8957 33.3726 15.9877 34.6985 16.7853C36.0127 17.5951 37.4442 18 39.0048 18C40.5654 18 41.9969 17.5951 43.3229 16.7853C44.6371 15.9877 45.6814 14.8957 46.4558 13.5092C47.2302 12.135 47.6175 10.638 47.6175 9.00613C47.6175 7.37423 47.2302 5.8773 46.4558 4.4908C45.6814 3.11656 44.6371 2.02454 43.3229 1.21472C41.9969 0.404909 40.5654 0 39.0048 0C37.4442 0 36.0127 0.404909 34.6985 1.21472C33.3726 2.02454 32.3282 3.11656 31.5538 4.4908C30.7794 5.8773 30.3922 7.37423 30.3922 9.00613ZM34.722 9.00613C34.675 6.44172 36.5994 4.28221 39.0048 4.33129C41.4337 4.28221 43.3346 6.44172 43.2877 9.00613C43.3346 11.5583 41.4337 13.7301 39.0048 13.681C36.5994 13.7301 34.675 11.5583 34.722 9.00613Z" fill="black"/>
<path d="M63.5667 0.785277C63.6019 0.674847 63.6254 0.588958 63.6254 0.527608C63.6254 0.343559 63.4963 0.257669 63.2499 0.257669H59.6124C59.2839 0.257669 59.0609 0.429448 58.9436 0.785277L55.5173 11.3374L52.0558 0.785277C51.9502 0.429448 51.7272 0.257669 51.387 0.257669L47.7964 0.233129C47.55 0.233129 47.4209 0.319019 47.4209 0.503068C47.4209 0.564418 47.4444 0.650307 47.4796 0.760737L53.5225 17.2393C53.6516 17.5828 53.8863 17.7546 54.2031 17.7546H56.8549C57.1718 17.7546 57.4064 17.5828 57.5355 17.2393L63.5667 0.785277Z" fill="black"/>
<path d="M65.7081 17.2393C65.7081 17.5828 65.8724 17.7546 66.201 17.7546H77.618C77.9583 17.7546 78.1226 17.5828 78.1226 17.2393V14.2331C78.1226 13.8896 77.9583 13.7178 77.618 13.7178H70.0614V10.7117H75.635C75.9987 10.7117 76.1865 10.5399 76.1865 10.1963V7.76687C76.1865 7.41104 75.9987 7.22699 75.635 7.22699H70.0614V4.31902H77.4068C77.7354 4.31902 77.8996 4.14724 77.8996 3.80368V0.785277C77.8996 0.429448 77.7354 0.257669 77.4068 0.257669H66.201C65.8724 0.257669 65.7081 0.429448 65.7081 0.785277V17.2393Z" fill="black"/>
<path d="M80.946 17.2393C80.946 17.5828 81.1103 17.7546 81.4388 17.7546H84.8065C85.135 17.7546 85.2993 17.5828 85.2993 17.2393V0.785277C85.2993 0.429448 85.135 0.257669 84.8065 0.257669H81.4388C81.1103 0.257669 80.946 0.429448 80.946 0.785277V17.2393Z" fill="black"/>
<path d="M88.0377 3.76687C88.0377 4.1227 88.202 4.29448 88.5305 4.29448H92.5083V17.2393C92.5083 17.5828 92.6726 17.7546 93.0011 17.7546H96.2514C96.5917 17.7546 96.7559 17.5828 96.7559 17.2393V4.29448H100.757C101.086 4.29448 101.25 4.1227 101.25 3.76687V0.785277C101.25 0.429448 101.086 0.257669 100.757 0.257669H88.5305C88.202 0.257669 88.0377 0.429448 88.0377 0.785277V3.76687Z" fill="black"/>
</svg>
