<svg width="78" height="24" viewBox="0 0 78 24" fill="none" xmlns="http://www.w3.org/2000/svg">
<path d="M4.00566 15.9425C3.10613 16.0404 2.22009 16.1556 1.34755 16.288C1.27023 16.3053 1.18991 16.3061 1.11221 16.2905C1.03451 16.2748 0.961329 16.243 0.897788 16.1973C0.786251 16.0535 0.734896 15.8748 0.753861 15.6964V3.3988C0.740071 3.2087 0.79055 3.0194 0.897788 2.85905C1.01359 2.73537 1.17478 2.65954 1.34755 2.64747C3.09562 2.46036 4.84371 2.33658 6.59179 2.27612C8.14347 2.21999 9.20489 2.55247 9.77608 3.21312C10.3723 3.95213 10.6767 4.87 10.6351 5.80392V8.16153C10.6713 9.09475 10.3675 10.0109 9.77608 10.7523C9.20489 11.4346 8.14347 11.8016 6.59179 11.9052C5.93514 11.9484 5.27848 12.0002 4.62183 12.0607V15.1739C4.63673 15.362 4.58437 15.5494 4.4734 15.705C4.41724 15.774 4.34653 15.8308 4.26592 15.8717C4.18532 15.9127 4.09664 15.9368 4.00566 15.9425ZM4.58584 5.88595V8.71855C5.09857 8.67537 5.61579 8.63651 6.12852 8.60628C6.25713 8.61438 6.38563 8.58897 6.50043 8.53273C6.61523 8.47648 6.71206 8.39149 6.78068 8.28676C6.885 8.08883 6.93748 7.86948 6.93358 7.64769V6.65887C6.93824 6.44115 6.88566 6.22581 6.78068 6.03277C6.67724 5.85141 6.46134 5.76937 6.12852 5.78664C5.61579 5.81255 5.09857 5.84709 4.58584 5.88595Z" fill="black"/>
<path d="M14.9843 15.4373C14.0848 15.4373 13.2258 15.4373 12.3487 15.4373C12.2637 15.4459 12.1777 15.4372 12.0964 15.4119C12.0151 15.3866 11.9401 15.3453 11.8765 15.2905C11.7661 15.1461 11.7149 14.9678 11.7326 14.7896V2.89786C11.7145 2.71957 11.7657 2.54115 11.8765 2.39698C11.9399 2.342 12.0149 2.30082 12.0964 2.27622C12.1779 2.25163 12.264 2.24422 12.3487 2.25448C14.2512 2.3063 16.1537 2.41425 18.0517 2.56538C19.3335 2.67333 20.2151 3.04036 20.7008 3.64056C21.1966 4.28029 21.4504 5.06315 21.4204 5.86V6.67609C21.4331 7.10295 21.3598 7.52815 21.2045 7.92831C21.1404 8.0887 21.0408 8.23386 20.9127 8.35386C20.7846 8.47385 20.631 8.56584 20.4624 8.62351C21.0629 8.73635 21.5974 9.0615 21.9601 9.5346C22.3583 10.0714 22.5592 10.72 22.5313 11.3784V15.135C22.5499 15.3067 22.4984 15.4785 22.3874 15.6143C22.3243 15.6614 22.252 15.696 22.1747 15.716C22.0975 15.736 22.0169 15.7411 21.9377 15.7309C21.0381 15.6661 20.1701 15.6143 19.2841 15.5711C19.197 15.5731 19.1105 15.5585 19.0294 15.5281C18.9483 15.4977 18.8744 15.4522 18.8118 15.3941C18.7015 15.2497 18.6502 15.0715 18.6679 14.8932V12.147C18.6826 11.9399 18.6308 11.7334 18.5195 11.5554C18.4583 11.4848 18.3811 11.4287 18.2938 11.3912C18.2064 11.3538 18.1113 11.3361 18.0157 11.3395C17.2151 11.3007 16.4146 11.2661 15.6185 11.2402V14.7939C15.635 14.9714 15.5821 15.1484 15.4701 15.2905C15.4047 15.3468 15.3275 15.389 15.2437 15.4143C15.16 15.4396 15.0715 15.4475 14.9843 15.4373ZM15.605 5.65705V7.97581L16.8868 8.03626C16.9974 8.05804 17.1121 8.05022 17.2184 8.01367C17.3247 7.97712 17.4185 7.91323 17.4895 7.82899C17.599 7.64857 17.652 7.44172 17.6424 7.23312V6.62428C17.6496 6.40906 17.5969 6.19588 17.4895 6.00681C17.4211 5.91578 17.3302 5.84248 17.225 5.7935C17.1199 5.74451 17.0036 5.72137 16.8868 5.72614L15.605 5.65705Z" fill="black"/>
<path d="M34.1442 13.8094C34.1515 14.2825 34.0724 14.753 33.9104 15.1998C33.7569 15.6063 33.4675 15.9525 33.0873 16.1843C32.5908 16.4669 32.0343 16.6381 31.4592 16.6852C30.5845 16.7669 29.7029 16.7495 28.8326 16.6334C27.9343 16.5488 27.0487 16.3677 26.1924 16.0936C25.5929 15.9017 25.0371 15.6012 24.5553 15.2085C24.178 14.8829 23.8946 14.4695 23.7323 14.0081C23.5749 13.5231 23.4975 13.0176 23.5029 12.5097V6.46455C23.4949 5.97347 23.5724 5.48456 23.7323 5.01802C23.8868 4.59833 24.1746 4.23583 24.5553 3.9817C25.048 3.68177 25.6105 3.50375 26.1924 3.46355C27.0744 3.39174 27.9623 3.43386 28.8326 3.58877C29.7337 3.71301 30.6157 3.94211 31.4592 4.27101C32.0616 4.50376 32.6137 4.84199 33.0873 5.26846C33.4626 5.61281 33.7451 6.0396 33.9104 6.51204C34.068 6.98514 34.1469 7.47914 34.1442 7.97584V13.8094ZM27.3978 12.2895C27.3952 12.5184 27.4874 12.739 27.6542 12.9026C27.9985 13.1423 28.4118 13.2736 28.8371 13.2783C29.4532 13.356 29.8445 13.3301 30.0154 13.1963C30.1008 13.132 30.1689 13.0491 30.2143 12.9545C30.2596 12.8599 30.2809 12.7563 30.2763 12.6522V8.00175C30.2741 7.77669 30.1805 7.56133 30.0154 7.40155C29.6753 7.15341 29.2639 7.01171 28.8371 6.99566C28.2164 6.90498 27.8251 6.93089 27.6542 7.06474C27.571 7.12773 27.5045 7.20863 27.4599 7.3009C27.4154 7.39317 27.3941 7.49422 27.3978 7.59585V12.2895Z" fill="black"/>
<path d="M42.9325 18.3174L38.4754 17.6481C38.2814 17.6246 38.0963 17.5565 37.9356 17.4495C37.7764 17.3242 37.6604 17.1556 37.6028 16.9659C37.0451 15.5064 36.4859 14.0397 35.9252 12.5659C35.8218 12.3025 35.7363 12.0693 35.6688 11.8707C35.6014 11.672 35.5429 11.4864 35.4934 11.3093C35.4478 11.1291 35.4162 10.9458 35.399 10.761C35.399 10.571 35.3765 10.3292 35.3765 10.0658V5.58369C35.3682 5.50608 35.3767 5.42766 35.4014 5.35335C35.4262 5.27903 35.4667 5.21045 35.5204 5.1519C35.5867 5.11184 35.661 5.08574 35.7385 5.07532C35.8161 5.0649 35.895 5.07039 35.9702 5.09144L38.6957 5.59665C38.8825 5.62396 39.0556 5.70705 39.1905 5.83414C39.3111 5.97112 39.3723 6.14734 39.3614 6.32639V10.9553C39.3627 11.0698 39.3747 11.1839 39.3974 11.2964C39.4236 11.4207 39.4582 11.5433 39.5008 11.6634C39.7647 12.4925 40.033 13.3186 40.3059 14.1419C40.3236 14.2305 40.3637 14.3136 40.4228 14.3837C40.4802 14.4348 40.5523 14.4679 40.6297 14.4787L40.8186 14.509C40.8886 14.525 40.9622 14.5158 41.0255 14.4831C41.0867 14.4278 41.1276 14.3551 41.1424 14.2758C41.4123 13.5389 41.6807 12.8034 41.9475 12.0693C41.9931 11.9619 42.0277 11.8506 42.051 11.7368C42.0741 11.6303 42.0861 11.5218 42.087 11.413V6.85318C42.0763 6.77547 42.0836 6.69645 42.1085 6.6218C42.1334 6.54714 42.1752 6.4787 42.2309 6.42138C42.3678 6.34772 42.5295 6.32909 42.6806 6.36957L45.3792 6.89636C45.5514 6.92271 45.7096 7.00321 45.829 7.12522C45.9327 7.26443 45.9835 7.43363 45.9729 7.60451V11.9225C45.9729 12.1859 45.9729 12.4061 45.9504 12.5831C45.9336 12.7524 45.9021 12.9199 45.856 13.084C45.8065 13.2395 45.7525 13.3992 45.685 13.5676C45.6176 13.736 45.5276 13.9347 45.4242 14.1549C44.8665 15.4042 44.3073 16.6579 43.7466 17.9158C43.7208 17.9975 43.678 18.0733 43.6208 18.1386C43.5636 18.2039 43.4931 18.2574 43.4138 18.2958C43.2573 18.339 43.0925 18.3464 42.9325 18.3174Z" fill="black"/>
<path d="M56.0206 20.2391C53.3715 19.885 50.7224 19.4921 48.0733 19.0905C47.9027 19.0744 47.7434 19.001 47.6235 18.8833C47.5156 18.7491 47.4628 18.5816 47.4751 18.4126V7.86376C47.463 7.78566 47.4701 7.70592 47.4959 7.63093C47.5216 7.55594 47.5654 7.48779 47.6235 7.43197C47.6912 7.39506 47.766 7.37181 47.8433 7.36364C47.9207 7.35547 47.9989 7.36256 48.0733 7.38447C50.7224 7.89399 53.3715 8.39488 56.0206 8.8569C56.1981 8.87826 56.3637 8.95397 56.4928 9.0728C56.5986 9.20448 56.6498 9.36904 56.6368 9.53483V11.3786C56.6502 11.4564 56.6442 11.5361 56.6191 11.6112C56.5941 11.6863 56.5508 11.7546 56.4928 11.8104C56.4221 11.8498 56.3438 11.8751 56.2627 11.8847C56.1815 11.8944 56.0992 11.8882 56.0206 11.8665C54.4464 11.6075 52.8708 11.3383 51.2936 11.0591V12.2983C52.4045 12.4883 53.5424 12.6783 54.6353 12.8597C54.8055 12.8804 54.9637 12.9548 55.0851 13.0712C55.1917 13.201 55.2446 13.364 55.2335 13.529V15.2259C55.246 15.304 55.2391 15.3839 55.2133 15.4589C55.1875 15.534 55.1435 15.6021 55.0851 15.6577C54.9496 15.7344 54.7883 15.7577 54.6353 15.7225C53.5199 15.5498 52.406 15.3727 51.2936 15.1914V16.5731C52.8678 16.8236 54.4434 17.0625 56.0206 17.2899C56.1976 17.3035 56.3643 17.3752 56.4928 17.4929C56.5934 17.6154 56.6445 17.7688 56.6368 17.9247V19.7684C56.6498 19.8462 56.6436 19.9258 56.6186 20.0009C56.5936 20.0759 56.5505 20.1442 56.4928 20.2002C56.421 20.2373 56.3421 20.2598 56.2609 20.2665C56.1797 20.2732 56.0979 20.2638 56.0206 20.2391Z" fill="black"/>
<path d="M58.301 20.5455C58.1331 20.5327 57.9746 20.4657 57.8513 20.3555C57.7446 20.2276 57.693 20.0653 57.7074 19.9021V18.0367C57.695 17.959 57.7016 17.8795 57.7265 17.8046C57.7515 17.7297 57.7942 17.6613 57.8513 17.6049C57.9864 17.5272 58.1475 17.5024 58.301 17.5358L59.9967 17.7604V12.5442L58.301 12.2895C58.1314 12.27 57.9733 12.1971 57.8513 12.0822C57.7455 11.9523 57.6941 11.789 57.7074 11.6245V9.7246C57.6972 9.65088 57.705 9.5759 57.7299 9.50551C57.7549 9.43511 57.7964 9.3712 57.8513 9.31872C57.9879 9.2445 58.1492 9.22436 58.301 9.26258C60.7343 9.66415 63.1675 10.0312 65.6007 10.3378C65.7677 10.3507 65.9258 10.4159 66.0504 10.5234C66.1561 10.6436 66.2093 10.7983 66.1989 10.9552V12.799C66.207 12.8723 66.1979 12.9465 66.1723 13.016C66.1466 13.0855 66.1049 13.1486 66.0504 13.2006C65.9155 13.2786 65.7549 13.3048 65.6007 13.274C65.043 13.2135 64.4898 13.1444 63.9366 13.0754V18.2569L65.6007 18.421C65.7671 18.4295 65.9257 18.4919 66.0504 18.5981C66.104 18.6568 66.1448 18.7253 66.1703 18.7995C66.1958 18.8737 66.2055 18.952 66.1989 19.0299V20.8391C66.2074 20.9131 66.1985 20.988 66.1728 21.0583C66.1471 21.1285 66.1053 21.1923 66.0504 21.245C65.9176 21.3281 65.7571 21.3605 65.6007 21.3357C63.1854 21.1025 60.7522 20.8477 58.301 20.5455Z" fill="black"/>
<path d="M73.4804 21.7545C72.5539 21.7545 71.6319 21.6983 70.7054 21.6552C70.535 21.6601 70.3682 21.6082 70.2332 21.5083C70.1801 21.4494 70.14 21.3807 70.1153 21.3065C70.0906 21.2323 70.0817 21.1541 70.0892 21.0765V13.723C69.2467 13.6539 68.4071 13.5762 67.5705 13.4899C67.3963 13.4863 67.229 13.4235 67.0983 13.3128C67.0455 13.2537 67.0056 13.1851 66.9808 13.1109C66.9561 13.0367 66.9471 12.9586 66.9544 12.881V11.0459C66.9446 10.9728 66.9525 10.8986 66.9775 10.829C67.0024 10.7593 67.0438 10.6961 67.0983 10.6443C67.2399 10.562 67.4092 10.5357 67.5705 10.5709C70.5839 10.9077 73.6018 11.1495 76.6153 11.2488C76.7769 11.2463 76.9349 11.2949 77.065 11.387C77.1178 11.4409 77.158 11.505 77.1828 11.575C77.2076 11.645 77.2165 11.7193 77.2089 11.7929V13.5589C77.217 13.6313 77.2083 13.7044 77.1834 13.7731C77.1585 13.8418 77.1181 13.9043 77.065 13.9562C76.9336 14.0437 76.7747 14.0849 76.6153 14.0728C75.7787 14.0512 74.9377 14.021 74.0966 13.9821V21.232C74.1039 21.3056 74.0948 21.3798 74.07 21.4498C74.0452 21.5197 74.0052 21.5839 73.9527 21.6379C73.8152 21.7304 73.6474 21.7718 73.4804 21.7545Z" fill="black"/>
</svg>
