<svg width="196" height="34" viewBox="0 0 196 34" fill="none" xmlns="http://www.w3.org/2000/svg">
<path d="M0 32.5631C0 33.212 0.318002 33.5365 0.931292 33.5365H7.4049C8.06362 33.5365 8.40434 33.212 8.40434 32.5631V21.9945H15.0824C20.7837 22.1104 25.0994 16.6408 25.0086 11.3102C25.0994 5.91002 20.6701 0.347648 14.9234 0.486708H0.931292C0.386145 0.486708 0 0.857532 0 1.4833V32.5631ZM8.40434 7.55556H13.1062C15.1278 7.55556 16.4452 9.45603 16.4452 11.2638C16.4452 13.1875 15.1732 14.9721 13.1062 14.9721H8.40434V7.55556Z" fill="white"/>
<path d="M29.7133 32.5631C29.7133 33.212 30.0313 33.5365 30.6446 33.5365H37.1637C37.7997 33.5365 38.1177 33.212 38.1177 32.5631V22.5508H41.6384L46.7946 32.6094C47.158 33.3511 47.3624 33.5365 47.9757 33.5365H55.8349C56.2665 33.5365 56.4936 33.2583 56.4936 32.9571C56.4936 32.8412 56.4482 32.7253 56.3801 32.5631L50.1336 20.6967C51.7463 19.6537 53.0183 18.3095 53.995 16.6639C54.9718 15.0184 55.4488 13.3265 55.4488 11.5883C55.5396 6.04908 51.0422 0.324472 45.1137 0.486708H30.6446C30.0313 0.486708 29.7133 0.95024 29.7133 1.4833V32.5631ZM38.1177 7.37014H42.9558C45.1364 7.37014 46.84 9.43286 46.84 11.426C46.84 13.4888 45.2046 15.4356 42.9558 15.4356H38.1177V7.37014Z" fill="white"/>
<path d="M58.8332 17.0116C58.8332 20.0941 59.5828 22.9216 61.0819 25.5174C62.5811 28.1363 64.6027 30.199 67.1694 31.7055C69.7134 33.2352 72.4846 34 75.5056 34C78.5266 34 81.2978 33.2352 83.8645 31.7055C86.4085 30.199 88.4301 28.1363 89.9293 25.5174C91.4284 22.9216 92.178 20.0941 92.178 17.0116C92.178 13.9291 91.4284 11.1016 89.9293 8.48262C88.4301 5.88684 86.4085 3.82413 83.8645 2.29448C81.2978 0.764828 78.5266 0 75.5056 0C72.4846 0 69.7134 0.764828 67.1694 2.29448C64.6027 3.82413 62.5811 5.88684 61.0819 8.48262C59.5828 11.1016 58.8332 13.9291 58.8332 17.0116ZM67.2148 17.0116C67.124 12.1677 70.8492 8.08862 75.5056 8.18132C80.2075 8.08862 83.8872 12.1677 83.7964 17.0116C83.8872 21.8323 80.2075 25.9346 75.5056 25.8419C70.8492 25.9346 67.124 21.8323 67.2148 17.0116Z" fill="white"/>
<path d="M123.053 1.4833C123.121 1.27471 123.166 1.11248 123.166 0.996592C123.166 0.648944 122.916 0.486708 122.439 0.486708H115.398C114.762 0.486708 114.33 0.81118 114.103 1.4833L107.47 21.4151L100.77 1.4833C100.565 0.81118 100.134 0.486708 99.475 0.486708L92.5244 0.440356C92.0474 0.440356 91.7975 0.602592 91.7975 0.95024C91.7975 1.06612 91.843 1.22836 91.9111 1.43695L103.609 32.5631C103.859 33.212 104.313 33.5365 104.926 33.5365H110.06C110.673 33.5365 111.128 33.212 111.377 32.5631L123.053 1.4833Z" fill="white"/>
<path d="M127.198 32.5631C127.198 33.212 127.516 33.5365 128.152 33.5365H150.253C150.912 33.5365 151.23 33.212 151.23 32.5631V26.8848C151.23 26.2359 150.912 25.9114 150.253 25.9114H135.625V20.2331H146.414C147.119 20.2331 147.482 19.9087 147.482 19.2597V14.6708C147.482 13.9986 147.119 13.651 146.414 13.651H135.625V8.15815H149.844C150.48 8.15815 150.798 7.83368 150.798 7.18473V1.4833C150.798 0.81118 150.48 0.486708 149.844 0.486708H128.152C127.516 0.486708 127.198 0.81118 127.198 1.4833V32.5631Z" fill="white"/>
<path d="M156.696 32.5631C156.696 33.212 157.014 33.5365 157.65 33.5365H164.169C164.805 33.5365 165.123 33.212 165.123 32.5631V1.4833C165.123 0.81118 164.805 0.486708 164.169 0.486708H157.65C157.014 0.486708 156.696 0.81118 156.696 1.4833V32.5631Z" fill="white"/>
<path d="M170.424 7.1152C170.424 7.78732 170.742 8.11179 171.378 8.11179H179.078V32.5631C179.078 33.212 179.396 33.5365 180.032 33.5365H186.324C186.982 33.5365 187.3 33.212 187.3 32.5631V8.11179H195.046C195.682 8.11179 196 7.78732 196 7.1152V1.4833C196 0.81118 195.682 0.486708 195.046 0.486708H171.378C170.742 0.486708 170.424 0.81118 170.424 1.4833V7.1152Z" fill="white"/>
</svg>
