<svg width="256" height="56" viewBox="0 0 256 56" fill="none" xmlns="http://www.w3.org/2000/svg">
<rect width="256" height="56" rx="4" fill="#4786F2"/>
<path d="M73.9819 32.6465H80.2026V35H71.0522V20.7812H73.9819V32.6465ZM81.2671 29.6191C81.2671 28.571 81.4689 27.6367 81.8726 26.8164C82.2762 25.9961 82.8556 25.3613 83.6108 24.9121C84.3726 24.4629 85.2547 24.2383 86.2573 24.2383C87.6831 24.2383 88.8452 24.6745 89.7437 25.5469C90.6486 26.4193 91.1532 27.6042 91.2573 29.1016L91.2769 29.8242C91.2769 31.4453 90.8244 32.7474 89.9194 33.7305C89.0145 34.707 87.8003 35.1953 86.2769 35.1953C84.7534 35.1953 83.536 34.707 82.6245 33.7305C81.7196 32.7539 81.2671 31.4258 81.2671 29.7461V29.6191ZM84.0894 29.8242C84.0894 30.8268 84.2782 31.5951 84.6558 32.1289C85.0334 32.6562 85.5737 32.9199 86.2769 32.9199C86.9604 32.9199 87.4943 32.6595 87.8784 32.1387C88.2625 31.6113 88.4546 30.7715 88.4546 29.6191C88.4546 28.6361 88.2625 27.8743 87.8784 27.334C87.4943 26.7936 86.9539 26.5234 86.2573 26.5234C85.5672 26.5234 85.0334 26.7936 84.6558 27.334C84.2782 27.8678 84.0894 28.6979 84.0894 29.8242ZM92.605 29.6387C92.605 28.0176 92.9891 26.7122 93.7573 25.7227C94.5321 24.7331 95.5737 24.2383 96.8823 24.2383C98.0412 24.2383 98.9429 24.6354 99.5874 25.4297L99.7046 24.4336H102.263V34.6484C102.263 35.5729 102.052 36.377 101.628 37.0605C101.212 37.7441 100.623 38.265 99.8608 38.623C99.0991 38.9811 98.2072 39.1602 97.1851 39.1602C96.4103 39.1602 95.6551 39.0039 94.9194 38.6914C94.1838 38.3854 93.6271 37.9883 93.2495 37.5L94.4995 35.7812C95.2026 36.569 96.0555 36.9629 97.0581 36.9629C97.8068 36.9629 98.3895 36.7611 98.8062 36.3574C99.2228 35.9603 99.4312 35.3939 99.4312 34.6582V34.0918C98.7801 34.8275 97.924 35.1953 96.8628 35.1953C95.5933 35.1953 94.5646 34.7005 93.7769 33.7109C92.9956 32.7148 92.605 31.3965 92.605 29.7559V29.6387ZM95.4272 29.8438C95.4272 30.8008 95.6193 31.5527 96.0034 32.0996C96.3875 32.64 96.9149 32.9102 97.5854 32.9102C98.4448 32.9102 99.0601 32.5879 99.4312 31.9434V27.5C99.0535 26.8555 98.4448 26.5332 97.605 26.5332C96.9279 26.5332 96.394 26.8099 96.0034 27.3633C95.6193 27.9167 95.4272 28.7435 95.4272 29.8438ZM107.419 35H104.587V24.4336H107.419V35ZM104.421 21.6992C104.421 21.276 104.561 20.9277 104.841 20.6543C105.128 20.3809 105.515 20.2441 106.003 20.2441C106.485 20.2441 106.869 20.3809 107.156 20.6543C107.442 20.9277 107.585 21.276 107.585 21.6992C107.585 22.1289 107.439 22.4805 107.146 22.7539C106.86 23.0273 106.479 23.1641 106.003 23.1641C105.528 23.1641 105.144 23.0273 104.851 22.7539C104.565 22.4805 104.421 22.1289 104.421 21.6992ZM112.351 24.4336L112.439 25.6543C113.194 24.7103 114.207 24.2383 115.476 24.2383C116.596 24.2383 117.429 24.5671 117.976 25.2246C118.523 25.8822 118.803 26.8652 118.816 28.1738V35H115.994V28.2422C115.994 27.6432 115.863 27.2103 115.603 26.9434C115.343 26.6699 114.91 26.5332 114.304 26.5332C113.51 26.5332 112.914 26.8717 112.517 27.5488V35H109.695V24.4336H112.351ZM135.134 31.1621L136.521 24.4336H139.246L136.55 35H134.187L132.185 28.3496L130.183 35H127.83L125.134 24.4336H127.859L129.236 31.1523L131.169 24.4336H133.21L135.134 31.1621ZM143.63 35H140.798V24.4336H143.63V35ZM140.632 21.6992C140.632 21.276 140.772 20.9277 141.052 20.6543C141.339 20.3809 141.726 20.2441 142.214 20.2441C142.696 20.2441 143.08 20.3809 143.367 20.6543C143.653 20.9277 143.796 21.276 143.796 21.6992C143.796 22.1289 143.65 22.4805 143.357 22.7539C143.07 23.0273 142.69 23.1641 142.214 23.1641C141.739 23.1641 141.355 23.0273 141.062 22.7539C140.776 22.4805 140.632 22.1289 140.632 21.6992ZM149.343 21.8359V24.4336H151.15V26.5039H149.343V31.7773C149.343 32.168 149.418 32.4479 149.568 32.6172C149.718 32.7865 150.004 32.8711 150.427 32.8711C150.74 32.8711 151.016 32.8483 151.257 32.8027V34.9414C150.704 35.1107 150.134 35.1953 149.548 35.1953C147.569 35.1953 146.56 34.196 146.521 32.1973V26.5039H144.978V24.4336H146.521V21.8359H149.343ZM155.476 25.5859C156.225 24.6875 157.166 24.2383 158.298 24.2383C160.59 24.2383 161.752 25.5697 161.785 28.2324V35H158.962V28.3105C158.962 27.7051 158.832 27.2591 158.572 26.9727C158.311 26.6797 157.878 26.5332 157.273 26.5332C156.446 26.5332 155.847 26.8522 155.476 27.4902V35H152.654V20H155.476V25.5859ZM180.33 33.2031C179.802 33.8346 179.057 34.3262 178.093 34.6777C177.13 35.0228 176.062 35.1953 174.89 35.1953C173.66 35.1953 172.579 34.9284 171.648 34.3945C170.723 33.8542 170.007 33.0729 169.5 32.0508C168.998 31.0286 168.741 29.8275 168.728 28.4473V27.4805C168.728 26.0612 168.966 24.834 169.441 23.7988C169.923 22.7572 170.613 21.9629 171.511 21.416C172.416 20.8626 173.474 20.5859 174.685 20.5859C176.371 20.5859 177.69 20.9896 178.64 21.7969C179.591 22.5977 180.154 23.7663 180.33 25.3027H177.478C177.348 24.4889 177.058 23.8932 176.609 23.5156C176.166 23.138 175.554 22.9492 174.773 22.9492C173.777 22.9492 173.018 23.3236 172.498 24.0723C171.977 24.821 171.713 25.9342 171.707 27.4121V28.3203C171.707 29.8112 171.99 30.9375 172.556 31.6992C173.123 32.4609 173.953 32.8418 175.046 32.8418C176.147 32.8418 176.931 32.6074 177.4 32.1387V29.6875H174.734V27.5293H180.33V33.2031ZM182.087 29.6191C182.087 28.571 182.289 27.6367 182.693 26.8164C183.097 25.9961 183.676 25.3613 184.431 24.9121C185.193 24.4629 186.075 24.2383 187.078 24.2383C188.503 24.2383 189.666 24.6745 190.564 25.5469C191.469 26.4193 191.973 27.6042 192.078 29.1016L192.097 29.8242C192.097 31.4453 191.645 32.7474 190.74 33.7305C189.835 34.707 188.621 35.1953 187.097 35.1953C185.574 35.1953 184.356 34.707 183.445 33.7305C182.54 32.7539 182.087 31.4258 182.087 29.7461V29.6191ZM184.91 29.8242C184.91 30.8268 185.098 31.5951 185.476 32.1289C185.854 32.6562 186.394 32.9199 187.097 32.9199C187.781 32.9199 188.315 32.6595 188.699 32.1387C189.083 31.6113 189.275 30.7715 189.275 29.6191C189.275 28.6361 189.083 27.8743 188.699 27.334C188.315 26.7936 187.774 26.5234 187.078 26.5234C186.388 26.5234 185.854 26.7936 185.476 27.334C185.098 27.8678 184.91 28.6979 184.91 29.8242ZM193.396 29.6191C193.396 28.571 193.598 27.6367 194.001 26.8164C194.405 25.9961 194.985 25.3613 195.74 24.9121C196.501 24.4629 197.384 24.2383 198.386 24.2383C199.812 24.2383 200.974 24.6745 201.873 25.5469C202.778 26.4193 203.282 27.6042 203.386 29.1016L203.406 29.8242C203.406 31.4453 202.953 32.7474 202.048 33.7305C201.143 34.707 199.929 35.1953 198.406 35.1953C196.882 35.1953 195.665 34.707 194.753 33.7305C193.848 32.7539 193.396 31.4258 193.396 29.7461V29.6191ZM196.218 29.8242C196.218 30.8268 196.407 31.5951 196.785 32.1289C197.162 32.6562 197.703 32.9199 198.406 32.9199C199.089 32.9199 199.623 32.6595 200.007 32.1387C200.391 31.6113 200.583 30.7715 200.583 29.6191C200.583 28.6361 200.391 27.8743 200.007 27.334C199.623 26.7936 199.083 26.5234 198.386 26.5234C197.696 26.5234 197.162 26.7936 196.785 27.334C196.407 27.8678 196.218 28.6979 196.218 29.8242ZM204.734 29.6387C204.734 28.0176 205.118 26.7122 205.886 25.7227C206.661 24.7331 207.703 24.2383 209.011 24.2383C210.17 24.2383 211.072 24.6354 211.716 25.4297L211.833 24.4336H214.392V34.6484C214.392 35.5729 214.181 36.377 213.757 37.0605C213.341 37.7441 212.751 38.265 211.99 38.623C211.228 38.9811 210.336 39.1602 209.314 39.1602C208.539 39.1602 207.784 39.0039 207.048 38.6914C206.313 38.3854 205.756 37.9883 205.378 37.5L206.628 35.7812C207.332 36.569 208.184 36.9629 209.187 36.9629C209.936 36.9629 210.518 36.7611 210.935 36.3574C211.352 35.9603 211.56 35.3939 211.56 34.6582V34.0918C210.909 34.8275 210.053 35.1953 208.992 35.1953C207.722 35.1953 206.694 34.7005 205.906 33.7109C205.125 32.7148 204.734 31.3965 204.734 29.7559V29.6387ZM207.556 29.8438C207.556 30.8008 207.748 31.5527 208.132 32.0996C208.516 32.64 209.044 32.9102 209.714 32.9102C210.574 32.9102 211.189 32.5879 211.56 31.9434V27.5C211.182 26.8555 210.574 26.5332 209.734 26.5332C209.057 26.5332 208.523 26.8099 208.132 27.3633C207.748 27.9167 207.556 28.7435 207.556 29.8438ZM219.548 35H216.716V20H219.548V35ZM226.746 35.1953C225.196 35.1953 223.933 34.7201 222.957 33.7695C221.986 32.819 221.501 31.5527 221.501 29.9707V29.6973C221.501 28.6361 221.707 27.6888 222.117 26.8555C222.527 26.0156 223.106 25.3711 223.855 24.9219C224.61 24.4661 225.47 24.2383 226.433 24.2383C227.878 24.2383 229.014 24.694 229.841 25.6055C230.675 26.5169 231.091 27.8092 231.091 29.4824V30.6348H224.363C224.454 31.3249 224.727 31.8783 225.183 32.2949C225.645 32.7116 226.228 32.9199 226.931 32.9199C228.018 32.9199 228.868 32.526 229.48 31.7383L230.867 33.291C230.444 33.89 229.871 34.3587 229.148 34.6973C228.425 35.0293 227.625 35.1953 226.746 35.1953ZM226.423 26.5234C225.863 26.5234 225.408 26.7122 225.056 27.0898C224.711 27.4674 224.49 28.0078 224.392 28.7109H228.318V28.4863C228.305 27.8613 228.136 27.3796 227.81 27.041C227.485 26.696 227.022 26.5234 226.423 26.5234Z" fill="white"/>
<g filter="url(#filter0_dd)">
<path d="M51.1827 1.78259H4.38271C2.94677 1.78259 1.78271 2.94665 1.78271 4.38259V51.1826C1.78271 52.6185 2.94677 53.7826 4.38271 53.7826H51.1827C52.6187 53.7826 53.7827 52.6185 53.7827 51.1826V4.38259C53.7827 2.94665 52.6187 1.78259 51.1827 1.78259Z" fill="white"/>
</g>
<path fill-rule="evenodd" clip-rule="evenodd" d="M39.0145 28.0485C39.0145 27.2189 38.94 26.4211 38.8017 25.6553H27.7825V30.1811H34.0792C33.808 31.6436 32.9837 32.8827 31.7445 33.7124V36.648H35.5257C37.7381 34.6111 39.0145 31.6117 39.0145 28.0485Z" fill="#4285F4"/>
<path fill-rule="evenodd" clip-rule="evenodd" d="M27.7827 39.4826C30.9417 39.4826 33.5901 38.4349 35.526 36.648L31.7447 33.7124C30.6971 34.4144 29.3569 34.8292 27.7827 34.8292C24.7354 34.8292 22.1561 32.771 21.236 30.0056H17.3271V33.037C19.2523 36.8607 23.2091 39.4826 27.7827 39.4826Z" fill="#34A853"/>
<path fill-rule="evenodd" clip-rule="evenodd" d="M21.2361 30.0056C21.0021 29.3036 20.8691 28.5537 20.8691 27.7826C20.8691 27.0115 21.0021 26.2616 21.2361 25.5596V22.5282H17.3272C16.5348 24.1077 16.0828 25.8946 16.0828 27.7826C16.0828 29.6705 16.5348 31.4575 17.3272 33.037L21.2361 30.0056Z" fill="#FBBC05"/>
<path fill-rule="evenodd" clip-rule="evenodd" d="M27.7827 20.736C29.5005 20.736 31.0427 21.3263 32.2553 22.4857L35.6111 19.1299C33.5848 17.2419 30.9364 16.0826 27.7827 16.0826C23.2091 16.0826 19.2523 18.7044 17.3271 22.5282L21.236 25.5596C22.1561 22.7941 24.7354 20.736 27.7827 20.736Z" fill="#EA4335"/>
<defs>
<filter id="filter0_dd" x="0.782715" y="0.782593" width="54" height="55" filterUnits="userSpaceOnUse" color-interpolation-filters="sRGB">
<feFlood flood-opacity="0" result="BackgroundImageFix"/>
<feColorMatrix in="SourceAlpha" type="matrix" values="0 0 0 0 0 0 0 0 0 0 0 0 0 0 0 0 0 0 127 0"/>
<feOffset dy="1"/>
<feGaussianBlur stdDeviation="0.5"/>
<feColorMatrix type="matrix" values="0 0 0 0 0 0 0 0 0 0 0 0 0 0 0 0 0 0 0.168 0"/>
<feBlend mode="normal" in2="BackgroundImageFix" result="effect1_dropShadow"/>
<feColorMatrix in="SourceAlpha" type="matrix" values="0 0 0 0 0 0 0 0 0 0 0 0 0 0 0 0 0 0 127 0"/>
<feOffset/>
<feGaussianBlur stdDeviation="0.5"/>
<feColorMatrix type="matrix" values="0 0 0 0 0 0 0 0 0 0 0 0 0 0 0 0 0 0 0.084 0"/>
<feBlend mode="normal" in2="effect1_dropShadow" result="effect2_dropShadow"/>
<feBlend mode="normal" in="SourceGraphic" in2="effect2_dropShadow" result="shape"/>
</filter>
</defs>
</svg>
