<svg width="32" height="32" viewBox="0 0 32 32" fill="none" xmlns="http://www.w3.org/2000/svg">
<rect width="32" height="32" rx="2" fill="#FEE500"/>
<path opacity="0.9" fill-rule="evenodd" clip-rule="evenodd" d="M16 9.60001C12 9.60001 8.79999 12.104 8.79999 15.2C8.85125 16.1845 9.17145 17.1361 9.72576 17.9514C10.2801 18.7666 11.0473 19.4143 11.944 19.824L11.144 22.76C11.1345 22.7973 11.1326 22.8362 11.1384 22.8742C11.1441 22.9123 11.1575 22.9488 11.1776 22.9816C11.1978 23.0145 11.2243 23.0429 11.2556 23.0653C11.2869 23.0877 11.3224 23.1036 11.36 23.112C11.3991 23.1237 11.4404 23.1262 11.4807 23.1193C11.521 23.1124 11.559 23.0962 11.592 23.072L15.096 20.752C15.3962 20.7842 15.698 20.8002 16 20.8C20 20.8 23.2 18.296 23.2 15.2C23.2 12.104 20 9.60001 16 9.60001Z" fill="black"/>
</svg>
