<svg width="32" height="32" viewBox="0 0 32 32" fill="none" xmlns="http://www.w3.org/2000/svg">
<rect width="32" height="32" rx="2" fill="#1B95E0"/>
<g clip-path="url(#clip0)">
<path d="M24 11.038C23.4113 11.2993 22.7787 11.4753 22.1147 11.5547C22.7927 11.1487 23.3133 10.5053 23.558 9.73866C22.924 10.1147 22.2213 10.388 21.4733 10.5353C20.8753 9.89732 20.0213 9.49866 19.0773 9.49866C16.958 9.49866 15.4007 11.476 15.8793 13.5287C13.152 13.392 10.7333 12.0853 9.114 10.0993C8.254 11.5747 8.668 13.5047 10.1293 14.482C9.592 14.4647 9.08533 14.3173 8.64333 14.0713C8.60733 15.592 9.69733 17.0147 11.276 17.3313C10.814 17.4567 10.308 17.486 9.79333 17.3873C10.2107 18.6913 11.4227 19.64 12.86 19.6667C11.48 20.7487 9.74133 21.232 8 21.0267C9.45267 21.958 11.1787 22.5013 13.032 22.5013C19.1267 22.5013 22.57 17.354 22.362 12.7373C23.0033 12.274 23.56 11.696 24 11.038Z" fill="white"/>
</g>
<defs>
<clipPath id="clip0">
<rect width="16" height="16" fill="white" transform="translate(8 8)"/>
</clipPath>
</defs>
</svg>
