<svg width="14" height="14" viewBox="0 0 14 14" fill="none" xmlns="http://www.w3.org/2000/svg">
<circle cx="7" cy="7" r="6.5" fill="#FFD900" stroke="#EDB92E"/>
<path d="M5.33775 7.75962V10.5H4.375V3.5H7.06769C7.86664 3.5 8.49176 3.69551 8.94305 4.08654C9.39768 4.47756 9.625 4.99519 9.625 5.63942C9.625 6.31891 9.4027 6.84295 8.95809 7.21154C8.51683 7.57692 7.88336 7.75962 7.05766 7.75962H5.33775ZM5.33775 7.00481H7.06769C7.5825 7.00481 7.97696 6.88942 8.25107 6.65865C8.52519 6.42468 8.66225 6.08814 8.66225 5.64904C8.66225 5.23237 8.52519 4.89904 8.25107 4.64904C7.97696 4.39904 7.60088 4.26923 7.12285 4.25962H5.33775V7.00481Z" fill="#262626"/>
</svg>
