<svg width="96" height="40" viewBox="0 0 96 40" fill="none" xmlns="http://www.w3.org/2000/svg">
<rect width="96" height="40" rx="2" fill="#FEE500"/>
<g clip-path="url(#clip0)">
<path opacity="0.9" fill-rule="evenodd" clip-rule="evenodd" d="M19 12.02C14 12.02 10 15.15 10 19.02C10.0641 20.2507 10.4643 21.4402 11.1572 22.4593C11.8501 23.4783 12.8091 24.2879 13.93 24.8L12.93 28.47C12.9181 28.5167 12.9157 28.5652 12.923 28.6128C12.9302 28.6604 12.9469 28.706 12.9721 28.7471C12.9972 28.7881 13.0304 28.8236 13.0695 28.8516C13.1087 28.8796 13.153 28.8995 13.2 28.91C13.2489 28.9247 13.3006 28.9278 13.3509 28.9191C13.4012 28.9105 13.4488 28.8902 13.49 28.86L17.87 25.96C18.2453 26.0002 18.6225 26.0202 19 26.02C24 26.02 28 22.89 28 19.02C28 15.15 24 12.02 19 12.02Z" fill="black"/>
</g>
<path d="M34.484 15.696V16.872H38.81C38.754 17.572 38.642 18.23 38.474 18.846L33.84 19.14L34.036 20.386L38.04 19.994C37.298 21.548 35.968 22.864 33.756 23.97L34.54 25.09C39.132 22.78 40.238 19.476 40.238 15.696H34.484ZM45.418 19.42H43.5V14.422H42.058V27.064H43.5V20.624H45.418V19.42ZM47.3629 15.696V16.872H51.6889C51.6329 17.572 51.5209 18.23 51.3529 18.846L46.7189 19.14L46.9149 20.386L50.9189 19.994C50.1769 21.548 48.8469 22.864 46.6349 23.97L47.4189 25.09C52.0109 22.78 53.1169 19.476 53.1169 15.696H47.3629ZM58.2969 19.42H56.3789V14.422H54.9369V27.064H56.3789V20.624H58.2969V19.42ZM61.9358 18.566C61.9358 17.194 63.2938 16.326 65.1838 16.326C67.0598 16.326 68.4178 17.194 68.4178 18.566C68.4178 19.938 67.0598 20.806 65.1838 20.806C63.2938 20.806 61.9358 19.938 61.9358 18.566ZM65.8978 24.348V21.94C68.2078 21.73 69.8318 20.442 69.8318 18.566C69.8318 16.508 67.8578 15.178 65.1838 15.178C62.4958 15.178 60.5358 16.508 60.5358 18.566C60.5358 20.442 62.1458 21.716 64.4558 21.926V24.348H59.4718V25.524H70.9238V24.348H65.8978ZM73.6107 24.46H80.8907V27.078H82.3327V23.312H73.6107V24.46ZM78.7767 21.212V20.05H82.5007V18.944H75.2347V17.922H82.1087V16.844H75.2347V15.864H82.4167V14.758H73.7927V20.05H77.3207V21.212H72.3227V22.374H83.7747V21.212H78.7767Z" fill="#191700"/>
<defs>
<clipPath id="clip0">
<rect width="18" height="16.89" fill="white" transform="translate(10 12)"/>
</clipPath>
</defs>
</svg>
