<svg width="20" height="20" viewBox="0 0 20 20" fill="none" xmlns="http://www.w3.org/2000/svg">
<path opacity="0.9" fill-rule="evenodd" clip-rule="evenodd" d="M10 2C5 2 1 5.13 1 9C1.06408 10.2306 1.46432 11.4202 2.15722 12.4392C2.85011 13.4583 3.80913 14.2679 4.93 14.78L3.93 18.45C3.91814 18.4966 3.91574 18.5452 3.92297 18.5928C3.93019 18.6404 3.94688 18.686 3.97205 18.727C3.99723 18.7681 4.03037 18.8036 4.06952 18.8316C4.10867 18.8596 4.15304 18.8795 4.2 18.89C4.24891 18.9047 4.30056 18.9078 4.35088 18.8991C4.4012 18.8904 4.44883 18.8702 4.49 18.84L8.87 15.94C9.24532 15.9802 9.62253 16.0002 10 16C15 16 19 12.87 19 9C19 5.13 15 2 10 2Z" fill="black"/>
</svg>
