<svg width="32" height="32" viewBox="0 0 32 32" fill="none" xmlns="http://www.w3.org/2000/svg">
<rect x="0.5" y="0.5" width="31" height="31" rx="1.5" fill="white" stroke="#D9D9D9"/>
<g clip-path="url(#clip0)">
<path d="M16.9189 19.5488L14.9936 21.4736C13.7584 22.7083 11.76 22.7083 10.5253 21.4736C9.92798 20.8773 9.59998 20.0837 9.59998 19.24C9.59998 18.3963 9.92798 17.6027 10.5248 17.0059L13.12 14.4112C14.376 13.1552 16.3808 13.2048 17.5877 14.4112C17.8293 14.6528 18.0197 14.9301 18.1685 15.2256L17.3189 16.0747C17.2229 15.7477 17.0522 15.4405 16.8048 15.1936C16.0325 14.4213 14.7088 14.3883 13.904 15.1931L13.9034 15.1941L11.3077 17.7888C10.5077 18.5883 10.5077 19.8907 11.3077 20.6901C12.1168 21.4992 13.4186 21.4837 14.2101 20.6901L15.5034 19.3973C16.033 19.5488 16.4586 19.576 16.9189 19.5488ZM17.0048 10.5259L15.0986 12.4331C15.5504 12.4064 15.9813 12.4331 16.5136 12.584L17.7898 11.3099C18.5888 10.5088 19.8912 10.5099 20.6912 11.3093C21.5002 12.1189 21.4837 13.4208 20.6912 14.2117L18.1146 16.7883L18.113 16.7893C17.3461 17.5557 16.0405 17.6171 15.2122 16.7883C14.96 16.5355 14.7936 16.2325 14.7024 15.912L14.6576 15.9483L13.8485 16.7563C13.9978 17.0528 14.1872 17.3296 14.4288 17.5712C15.6261 18.7685 17.6309 18.8373 18.897 17.5712L21.4741 14.9947C22.7082 13.7595 22.7093 11.7616 21.4736 10.5269C20.2378 9.28907 18.2378 9.29334 17.0048 10.5259Z" fill="#262626"/>
</g>
<defs>
<clipPath id="clip0">
<rect width="12.8" height="12.8" fill="white" transform="translate(9.59998 9.60001)"/>
</clipPath>
</defs>
</svg>
