<svg width="160" height="66" viewBox="0 0 160 66" fill="none" xmlns="http://www.w3.org/2000/svg">
<g clip-path="url(#clip0)">
<path d="M0 65.9974C44.3618 45.9472 88.7298 68.7812 133.098 63.1599C134.329 62.9943 135.484 62.4301 136.406 61.5433C143.702 54.5468 150.997 47.101 158.292 38.8971C160.578 36.3011 160.578 33.2892 158.292 32.4037C150.997 29.4858 143.702 25.0652 136.406 19.4573C135.437 18.7347 134.28 18.3525 133.098 18.3639C88.7298 18.2633 44.3618 -10.2725 0 4.01551C0 4.32407 11.3008 29.6333 0 65.9974Z" fill="white"/>
<path d="M23.0599 40.0736C21.8043 40.2257 20.5675 40.4045 19.3495 40.6103C19.2416 40.6386 19.1292 40.6406 19.0206 40.6162C18.9119 40.5918 18.8097 40.5416 18.7217 40.4694C18.5609 40.2485 18.4866 39.9695 18.5145 39.6913V20.5869C18.4948 20.2906 18.5676 19.9957 18.7217 19.7484C18.8009 19.6521 18.8971 19.5735 19.0049 19.5171C19.1126 19.4607 19.2297 19.4276 19.3495 19.4197C21.7938 19.1335 24.2339 18.9412 26.6699 18.8428C28.8421 18.7556 30.3238 19.2721 31.1211 20.2984C31.9512 21.4474 32.3737 22.8732 32.314 24.3232V27.9858C32.3662 29.4348 31.9444 30.8579 31.1211 32.0106C30.3238 33.0705 28.8421 33.6406 26.6699 33.8016C25.7533 33.8687 24.8366 33.9492 23.92 34.0431V38.8796C23.9388 39.1706 23.8683 39.4603 23.7191 39.7047C23.6387 39.8111 23.5387 39.8987 23.4253 39.9622C23.3119 40.0257 23.1876 40.0636 23.0599 40.0736ZM23.8572 24.4507V28.8511C24.5792 28.7841 25.2949 28.7237 26.0107 28.6767C26.1902 28.6893 26.3696 28.6498 26.5298 28.5625C26.69 28.4751 26.8252 28.3431 26.921 28.1803C27.0666 27.8729 27.1399 27.5321 27.1345 27.1875V25.6514C27.141 25.3132 27.0675 24.9787 26.921 24.6788C26.7766 24.397 26.4752 24.2696 26.0107 24.2964C25.3075 24.3367 24.5918 24.3903 23.8572 24.4507Z" fill="black"/>
<path d="M38.3913 39.2887C37.1357 39.2887 35.9365 39.2887 34.706 39.2887C34.5873 39.302 34.4673 39.2886 34.3538 39.2493C34.2402 39.21 34.1357 39.1457 34.0468 39.0606C33.8959 38.8347 33.8247 38.5591 33.8459 38.2825V19.8086C33.8236 19.5319 33.8948 19.2558 34.0468 19.0305C34.1353 18.9451 34.24 18.8811 34.3538 18.8429C34.4676 18.8047 34.5877 18.7932 34.706 18.8092C37.3617 18.8896 40.0174 19.0573 42.6731 19.2921C44.4561 19.4598 45.6866 20.03 46.3647 20.9624C47.0612 21.9545 47.4199 23.1708 47.3817 24.4103V25.6781C47.3981 26.3406 47.298 27.0004 47.0866 27.6235C46.9956 27.8728 46.8555 28.0984 46.6756 28.2847C46.4958 28.4711 46.2805 28.6139 46.0445 28.7035C46.8827 28.8788 47.6288 29.3839 48.1351 30.1188C48.6931 30.9519 48.9758 31.9595 48.9387 32.9831V38.8191C48.9636 39.0867 48.8892 39.3541 48.7315 39.5637C48.6437 39.6375 48.5428 39.6917 48.4349 39.7228C48.327 39.7539 48.2144 39.7614 48.1037 39.7448C46.8481 39.642 45.6113 39.5592 44.3933 39.4966C44.1588 39.4941 43.9341 39.3957 43.7655 39.2216C43.6145 38.9957 43.5433 38.7201 43.5646 38.4435V34.1772C43.5839 33.8564 43.514 33.5366 43.3637 33.2582C43.277 33.1484 43.1681 33.0611 43.0452 33.003C42.9222 32.9449 42.7886 32.9175 42.6542 32.9228C41.5367 32.8624 40.4255 32.8087 39.3079 32.7685V38.2892C39.3293 38.5637 39.258 38.8373 39.107 39.0606C39.0107 39.1524 38.8967 39.2205 38.773 39.2599C38.6493 39.2993 38.519 39.3091 38.3913 39.2887ZM39.2514 24.095V27.6973L41.047 27.7912C41.2004 27.8252 41.3597 27.8132 41.5071 27.7563C41.6545 27.6995 41.7843 27.6001 41.882 27.4692C42.0348 27.1889 42.1089 26.8675 42.0955 26.5435V25.5976C42.1055 25.2633 42.0318 24.9321 41.882 24.6384C41.7879 24.4971 41.6622 24.3832 41.5164 24.307C41.3705 24.2308 41.2092 24.1949 41.047 24.2024L39.2514 24.095Z" fill="black"/>
<path d="M65.1299 36.7597C65.1432 37.4948 65.0326 38.2265 64.8034 38.9197C64.5896 39.5495 64.1882 40.0868 63.6608 40.4491C62.9669 40.886 62.1904 41.1518 61.3881 41.2273C60.1651 41.3541 58.9324 41.3271 57.7154 41.1468C56.4616 41.0145 55.2255 40.7332 54.0301 40.3083C53.1931 40.0101 52.4173 39.5433 51.7448 38.9331C51.218 38.4288 50.8241 37.7859 50.6022 37.0683C50.3775 36.3161 50.2672 35.5302 50.2757 34.7406V25.3494C50.2633 24.5859 50.3737 23.8258 50.6022 23.1023C50.8135 22.4496 51.2136 21.8858 51.7448 21.4923C52.4326 21.0264 53.2177 20.7498 54.0301 20.6874C55.2611 20.5758 56.5006 20.6413 57.7154 20.8819C58.9751 21.0759 60.2083 21.4317 61.3881 21.9418C62.2274 22.3066 62.9975 22.8317 63.6608 23.4913C64.1807 24.0285 64.5725 24.691 64.8034 25.4232C65.0265 26.1574 65.1368 26.9254 65.1299 27.6972V36.7597ZM55.7126 34.3985C55.709 34.7542 55.8377 35.0968 56.0705 35.3511C56.5517 35.7222 57.1282 35.926 57.7216 35.9347C58.5817 36.0554 59.1342 36.0152 59.3728 35.8072C59.49 35.7059 59.5834 35.5767 59.6455 35.4299C59.7077 35.2832 59.7368 35.1229 59.7307 34.962V27.7375C59.7293 27.3888 59.601 27.0544 59.3728 26.8051C58.8955 26.4198 58.3193 26.1998 57.7216 26.1745C56.8615 26.0337 56.309 26.0739 56.0705 26.2819C55.9544 26.3797 55.8615 26.5054 55.7993 26.6487C55.7371 26.7921 55.7075 26.949 55.7126 27.1069V34.3985Z" fill="black"/>
<path d="M77.3977 43.763L71.1823 42.7233C70.9109 42.6894 70.6519 42.5833 70.4289 42.4147C70.2028 42.2225 70.0383 41.9599 69.958 41.6634C69.1795 39.3961 68.3989 37.1176 67.6162 34.828C67.4718 34.4188 67.3526 34.0566 67.2584 33.748C67.1642 33.4394 67.0826 33.151 67.0198 32.876C66.9561 32.5959 66.912 32.3111 66.888 32.024C66.888 31.7289 66.8503 31.3532 66.8503 30.944V23.9811C66.8387 23.8606 66.8505 23.7387 66.8851 23.6233C66.9197 23.5079 66.9762 23.4013 67.0512 23.3103C67.1437 23.2481 67.2475 23.2076 67.3557 23.1914C67.4639 23.1752 67.5741 23.1837 67.679 23.2164L71.4836 24.0013C71.7444 24.0437 71.986 24.1728 72.1742 24.3702C72.3448 24.582 72.4325 24.8559 72.4191 25.1349V32.3259C72.4187 32.5036 72.4334 32.681 72.463 32.8558C72.4996 33.049 72.5478 33.2395 72.6074 33.426C72.9841 34.7139 73.3545 35.9952 73.7312 37.2764C73.7602 37.4138 73.8182 37.5422 73.9007 37.652C73.9777 37.7323 74.0767 37.784 74.1832 37.7996L74.4469 37.8466C74.5445 37.8722 74.6475 37.8579 74.7357 37.8063C74.821 37.7195 74.8801 37.6073 74.9052 37.4843C75.2735 36.3395 75.6481 35.1969 76.029 34.0566C76.0869 33.8877 76.1352 33.7152 76.1734 33.54C76.2036 33.3743 76.2183 33.2058 76.2174 33.0369V25.9533C76.2019 25.832 76.2125 25.7086 76.2484 25.5923C76.2843 25.4761 76.3446 25.3701 76.4245 25.2825C76.5187 25.2244 76.6228 25.1873 76.7307 25.1735C76.8386 25.1597 76.9481 25.1694 77.0524 25.202L80.8193 26.0204C81.0606 26.0583 81.2823 26.1838 81.4471 26.3759C81.5971 26.5897 81.6705 26.8538 81.6543 27.1205V33.8285C81.6543 34.2399 81.6417 34.582 81.6166 34.8548C81.5932 35.1177 81.5491 35.378 81.4848 35.6329C81.422 35.8744 81.3404 36.1226 81.2462 36.3842C81.152 36.6458 81.0327 36.9544 80.8883 37.2965C80.1057 39.2374 79.323 41.1849 78.5403 43.1392C78.5064 43.2671 78.4474 43.3859 78.3673 43.4876C78.2873 43.5894 78.1878 43.6718 78.0757 43.7295C77.8553 43.7976 77.623 43.8091 77.3977 43.763Z" fill="black"/>
<path d="M95.6737 46.748C91.9695 46.1979 88.2717 45.5875 84.5738 44.9636C84.3252 44.9435 84.0915 44.8293 83.9146 44.6417C83.7687 44.431 83.6975 44.1719 83.7137 43.9105V27.5229C83.6974 27.4021 83.707 27.279 83.7418 27.1627C83.7766 27.0465 83.8357 26.9403 83.9146 26.8521C84.0132 26.7904 84.1231 26.7519 84.2367 26.7392C84.3504 26.7264 84.4653 26.7398 84.5738 26.7783C88.2717 27.5698 91.9695 28.3479 95.6737 29.0657C95.9111 29.103 96.1311 29.2205 96.3015 29.4011C96.4513 29.6047 96.5251 29.8605 96.5087 30.1189V32.9832C96.5266 33.1045 96.5172 33.2287 96.4811 33.3454C96.4451 33.4621 96.3835 33.5679 96.3015 33.654C96.1113 33.7707 95.8855 33.802 95.6737 33.7412C93.4721 33.3387 91.2705 32.9206 89.069 32.4868V34.412C90.626 34.7071 92.1767 35.0023 93.7337 35.284C93.9705 35.319 94.1905 35.4342 94.3615 35.6127C94.5056 35.8166 94.5768 36.0687 94.5624 36.3238V38.96C94.5792 39.0808 94.5698 39.2041 94.535 39.3203C94.5001 39.4366 94.4408 39.5428 94.3615 39.6308C94.1715 39.7474 93.9474 39.7833 93.7337 39.7314C92.1767 39.4631 90.5946 39.1881 89.069 38.9063V41.0529C91.2705 41.4419 93.4721 41.8131 95.6737 42.1664C95.9105 42.1918 96.132 42.3031 96.3015 42.4817C96.4441 42.6712 96.5177 42.9095 96.5087 43.1525V46.0168C96.5261 46.1382 96.5164 46.2622 96.4804 46.3788C96.4444 46.4954 96.3831 46.6012 96.3015 46.6876C96.2058 46.7416 96.101 46.7748 95.9932 46.7852C95.8855 46.7955 95.7768 46.7829 95.6737 46.748Z" fill="black"/>
<path d="M98.8754 47.2243C98.6305 47.2093 98.3979 47.1051 98.2162 46.9292C98.07 46.729 97.9984 46.4781 98.0153 46.2248V43.327C97.9999 43.2062 98.01 43.0834 98.0447 42.9673C98.0795 42.8513 98.138 42.745 98.2162 42.6562C98.314 42.5927 98.4226 42.5505 98.5357 42.532C98.6489 42.5136 98.7643 42.5193 98.8754 42.5489L101.242 42.8977V34.7944L98.8754 34.3986C98.6283 34.3725 98.3963 34.2593 98.2162 34.0767C98.0711 33.8733 97.9998 33.6208 98.0153 33.3656V30.4141C98.0025 30.2996 98.014 30.1836 98.0487 30.0744C98.0835 29.9653 98.1407 29.8659 98.2162 29.7835C98.3149 29.7223 98.4242 29.683 98.5374 29.6681C98.6507 29.6531 98.7657 29.6627 98.8754 29.6963C102.272 30.3202 105.668 30.8904 109.065 31.3666C109.308 31.3824 109.54 31.4838 109.724 31.6551C109.867 31.8443 109.938 32.0834 109.925 32.3259V35.1902C109.936 35.3035 109.924 35.418 109.889 35.5258C109.854 35.6335 109.798 35.7318 109.724 35.814C109.526 35.9419 109.29 35.9827 109.065 35.9281C108.293 35.8341 107.52 35.7268 106.742 35.6195V43.6691L109.065 43.924C109.308 43.9329 109.54 44.0299 109.724 44.199C109.87 44.3863 109.942 44.6268 109.925 44.8698V47.6805C109.936 47.7949 109.924 47.9105 109.89 48.0194C109.855 48.1283 109.798 48.2278 109.724 48.311C109.529 48.4461 109.293 48.4965 109.065 48.4519C105.668 48.0897 102.272 47.6939 98.8754 47.2243Z" fill="black"/>
<path d="M120.039 49.1026C118.754 49.0713 117.463 49.0198 116.166 48.9483C115.938 48.9483 115.718 48.8681 115.538 48.7202C115.464 48.6286 115.408 48.522 115.373 48.4067C115.339 48.2914 115.326 48.1699 115.337 48.0494V36.6257C114.163 36.5183 112.995 36.3976 111.821 36.2634C111.568 36.2751 111.32 36.1867 111.124 36.0152C110.978 35.828 110.906 35.5874 110.923 35.3444V32.4935C110.911 32.3801 110.923 32.2652 110.958 32.1573C110.992 32.0493 111.049 31.9511 111.124 31.8697C111.322 31.7419 111.558 31.701 111.783 31.7557C115.996 32.2789 120.202 32.6545 124.415 32.8088C124.641 32.8024 124.862 32.878 125.043 33.0235C125.117 33.1068 125.174 33.2062 125.21 33.3149C125.246 33.4236 125.259 33.5392 125.25 33.654V36.3976C125.26 36.5104 125.247 36.6242 125.211 36.7309C125.175 36.8375 125.118 36.9344 125.043 37.0147C124.861 37.1534 124.638 37.2176 124.415 37.1959C123.241 37.1623 122.067 37.1154 120.899 37.055V48.2909C120.91 48.4058 120.897 48.5217 120.861 48.6307C120.825 48.7396 120.768 48.8388 120.692 48.9214C120.503 49.0659 120.27 49.1304 120.039 49.1026Z" fill="black"/>
</g>
<defs>
<clipPath id="clip0">
<rect width="160" height="66" fill="white"/>
</clipPath>
</defs>
</svg>
