<svg width="126" height="52" viewBox="0 0 126 52" fill="none" xmlns="http://www.w3.org/2000/svg">
<g clip-path="url(#clip0)">
<path d="M0 51.9983C34.9349 36.2011 69.8748 54.1916 104.815 49.7627C105.784 49.6321 106.693 49.1877 107.42 48.489C113.165 42.9766 118.91 37.1102 124.655 30.6465C126.455 28.6012 126.455 26.2282 124.655 25.5305C118.91 23.2315 113.165 19.7486 107.42 15.3303C106.656 14.7609 105.746 14.4599 104.815 14.4688C69.8748 14.3896 34.9349 -8.09321 0 3.16403C0 3.40715 8.89935 23.3478 0 51.9983Z" fill="black"/>
<path d="M18.1597 31.5732C17.1709 31.693 16.1969 31.8339 15.2377 31.996C15.1528 32.0183 15.0643 32.0199 14.9787 32.0007C14.8931 31.9814 14.8127 31.9419 14.7433 31.885C14.6167 31.7109 14.5582 31.4911 14.5802 31.2719V16.22C14.5646 15.9865 14.622 15.7542 14.7433 15.5593C14.8057 15.4835 14.8815 15.4215 14.9663 15.3771C15.0512 15.3326 15.1434 15.3066 15.2377 15.3004C17.1626 15.0749 19.0842 14.9234 21.0025 14.8459C22.7132 14.7771 23.88 15.1841 24.5079 15.9927C25.1615 16.898 25.4943 18.0213 25.4473 19.1638V22.0494C25.4884 23.191 25.1562 24.3123 24.5079 25.2205C23.88 26.0555 22.7132 26.5048 21.0025 26.6316C20.2807 26.6845 19.5588 26.7479 18.837 26.8219V30.6324C18.8518 30.8617 18.7963 31.0899 18.6788 31.2825C18.6155 31.3663 18.5367 31.4354 18.4474 31.4854C18.3581 31.5354 18.2602 31.5653 18.1597 31.5732ZM18.7876 19.2642V22.7312C19.3561 22.6784 19.9198 22.6308 20.4834 22.5938C20.6248 22.6037 20.766 22.5726 20.8922 22.5038C21.0184 22.4349 21.1248 22.3309 21.2003 22.2027C21.315 21.9605 21.3727 21.692 21.3684 21.4205V20.2102C21.3735 19.9437 21.3157 19.6802 21.2003 19.4439C21.0866 19.2219 20.8493 19.1215 20.4834 19.1426C19.9297 19.1743 19.366 19.2166 18.7876 19.2642Z" fill="white"/>
<path d="M30.2331 30.9547C29.2443 30.9547 28.3 30.9547 27.331 30.9547C27.2375 30.9652 27.143 30.9546 27.0536 30.9237C26.9642 30.8927 26.8818 30.8421 26.8118 30.775C26.693 30.5971 26.6369 30.3799 26.6536 30.1619V15.6068C26.636 15.3888 26.6922 15.1713 26.8118 14.9937C26.8815 14.9264 26.964 14.876 27.0536 14.8459C27.1432 14.8158 27.2378 14.8068 27.331 14.8193C29.4223 14.8828 31.5137 15.0149 33.605 15.1999C35.0091 15.332 35.9782 15.7812 36.5121 16.5158C37.0606 17.2975 37.3432 18.2558 37.3131 19.2324V20.2313C37.3259 20.7532 37.2471 21.2731 37.0807 21.7639C37.009 21.9604 36.8986 22.1381 36.757 22.2849C36.6154 22.4318 36.4459 22.5443 36.26 22.6148C36.9201 22.753 37.5076 23.1509 37.9064 23.73C38.3457 24.3863 38.5684 25.1802 38.5392 25.9867V30.5847C38.5588 30.7956 38.5002 31.0062 38.376 31.1714C38.3069 31.2296 38.2274 31.2722 38.1425 31.2968C38.0575 31.3213 37.9688 31.3272 37.8816 31.3141C36.8928 31.2331 35.9188 31.1679 34.9597 31.1185C34.775 31.1166 34.5981 31.039 34.4653 30.9019C34.3464 30.7239 34.2903 30.5067 34.3071 30.2888V26.9275C34.3223 26.6747 34.2672 26.4228 34.1489 26.2034C34.0806 26.1169 33.9948 26.0482 33.898 26.0024C33.8012 25.9566 33.6959 25.935 33.5902 25.9392C32.7101 25.8916 31.835 25.8493 30.955 25.8176V30.1672C30.9718 30.3835 30.9157 30.5991 30.7968 30.775C30.7209 30.8474 30.6311 30.901 30.5337 30.932C30.4363 30.9631 30.3337 30.9708 30.2331 30.9547ZM30.9105 18.984V21.8221L32.3245 21.8961C32.4453 21.9229 32.5707 21.9134 32.6868 21.8686C32.8029 21.8238 32.9051 21.7455 32.982 21.6424C33.1024 21.4215 33.1607 21.1684 33.1501 20.913V20.1678C33.1581 19.9044 33.1 19.6435 32.982 19.4121C32.9079 19.3007 32.809 19.211 32.6941 19.151C32.5793 19.091 32.4522 19.0626 32.3245 19.0685L30.9105 18.984Z" fill="white"/>
<path d="M51.2898 28.9622C51.3003 29.5414 51.2132 30.1178 51.0327 30.664C50.8643 31.1602 50.5482 31.5835 50.1329 31.869C49.5864 32.2132 48.975 32.4227 48.3431 32.4821C47.38 32.5821 46.4093 32.5608 45.4508 32.4187C44.4635 32.3144 43.4901 32.0929 42.5487 31.758C41.8896 31.5231 41.2787 31.1553 40.749 30.6746C40.3342 30.2773 40.024 29.7707 39.8492 29.2054C39.6723 28.6127 39.5855 27.9935 39.5921 27.3714V19.9723C39.5823 19.3708 39.6693 18.7719 39.8492 18.2018C40.0156 17.6876 40.3308 17.2434 40.749 16.9334C41.2907 16.5663 41.909 16.3484 42.5487 16.2992C43.5181 16.2113 44.4942 16.2628 45.4508 16.4524C46.4429 16.6053 47.414 16.8856 48.3431 17.2875C49.0041 17.5749 49.6106 17.9886 50.1329 18.5083C50.5423 18.9316 50.8508 19.4535 51.0327 20.0304C51.2084 20.6089 51.2952 21.2139 51.2898 21.8221V28.9622ZM43.8737 27.1019C43.8709 27.3821 43.9722 27.652 44.1555 27.8524C44.5344 28.1448 44.9885 28.3054 45.4558 28.3122C46.1331 28.4073 46.5682 28.3756 46.7561 28.2118C46.8484 28.1319 46.9219 28.0301 46.9709 27.9145C47.0198 27.7989 47.0427 27.6726 47.0379 27.5458V21.8538C47.0368 21.5791 46.9358 21.3156 46.7561 21.1192C46.3802 20.8157 45.9265 20.6423 45.4558 20.6224C44.7785 20.5114 44.3434 20.5431 44.1555 20.7069C44.0641 20.784 43.9909 20.883 43.942 20.996C43.893 21.1089 43.8696 21.2326 43.8737 21.357V27.1019Z" fill="white"/>
<path d="M60.9507 34.48L56.0561 33.6608C55.8424 33.6341 55.6384 33.5505 55.4628 33.4177C55.2848 33.2662 55.1552 33.0594 55.092 32.8258C54.4789 31.0394 53.8642 29.2442 53.2478 27.4402C53.1341 27.1179 53.0402 26.8325 52.966 26.5893C52.8919 26.3462 52.8276 26.119 52.7781 25.9023C52.7279 25.6816 52.6932 25.4573 52.6743 25.2311C52.6743 24.9985 52.6446 24.7026 52.6446 24.3802V18.8943C52.6355 18.7993 52.6448 18.7033 52.6721 18.6123C52.6993 18.5214 52.7438 18.4374 52.8029 18.3658C52.8757 18.3167 52.9574 18.2848 53.0426 18.272C53.1279 18.2593 53.2146 18.266 53.2973 18.2918L56.2934 18.9101C56.4987 18.9435 56.689 19.0452 56.8372 19.2008C56.9716 19.3677 57.0406 19.5834 57.03 19.8033V25.4689C57.0297 25.6089 57.0413 25.7487 57.0646 25.8864C57.0935 26.0386 57.1315 26.1887 57.1784 26.3357C57.475 27.3504 57.7667 28.3599 58.0634 29.3693C58.0862 29.4775 58.1319 29.5788 58.1968 29.6653C58.2575 29.7285 58.3354 29.7692 58.4193 29.7815L58.627 29.8185C58.7038 29.8387 58.785 29.8274 58.8544 29.7868C58.9216 29.7184 58.9681 29.6301 58.9879 29.5331C59.2779 28.6312 59.5729 27.7309 59.8729 26.8325C59.9185 26.6994 59.9565 26.5635 59.9866 26.4255C60.0104 26.2949 60.0219 26.1622 60.0212 26.0291V20.4481C60.009 20.3525 60.0174 20.2553 60.0457 20.1637C60.0739 20.0721 60.1214 19.9886 60.1844 19.9196C60.2585 19.8738 60.3405 19.8446 60.4255 19.8337C60.5105 19.8228 60.5966 19.8304 60.6788 19.8562L63.6452 20.5009C63.8352 20.5308 64.0098 20.6297 64.1396 20.781C64.2577 20.9495 64.3156 21.1576 64.3028 21.3677V26.6528C64.3028 26.9769 64.2929 27.2465 64.2731 27.4614C64.2547 27.6685 64.22 27.8736 64.1693 28.0745C64.1198 28.2647 64.0556 28.4603 63.9814 28.6664C63.9073 28.8725 63.8133 29.1156 63.6996 29.3852C63.0832 30.9143 62.4669 32.4488 61.8505 33.9885C61.8238 34.0893 61.7774 34.1828 61.7143 34.263C61.6512 34.3432 61.573 34.4081 61.4847 34.4536C61.3111 34.5072 61.1281 34.5163 60.9507 34.48Z" fill="white"/>
<path d="M75.343 36.8317C72.426 36.3984 69.5139 35.9174 66.6019 35.4259C66.4061 35.41 66.2221 35.3201 66.0827 35.1722C65.9679 35.0063 65.9118 34.8021 65.9245 34.5961V21.6847C65.9117 21.5895 65.9193 21.4925 65.9467 21.4009C65.9741 21.3094 66.0206 21.2257 66.0827 21.1562C66.1604 21.1076 66.2469 21.0772 66.3364 21.0672C66.4259 21.0572 66.5164 21.0677 66.6019 21.098C69.5139 21.7217 72.426 22.3347 75.343 22.9002C75.53 22.9296 75.7032 23.0222 75.8374 23.1645C75.9554 23.3249 76.0135 23.5264 76.0006 23.73V25.9867C76.0147 26.0823 76.0073 26.1802 75.9789 26.2721C75.9505 26.3641 75.902 26.4474 75.8374 26.5152C75.6876 26.6072 75.5098 26.6319 75.343 26.584C73.6093 26.2668 71.8755 25.9374 70.1418 25.5956V27.1125C71.368 27.345 72.5891 27.5775 73.8153 27.7995C74.0017 27.8271 74.175 27.9179 74.3097 28.0585C74.4231 28.2191 74.4792 28.4178 74.4679 28.6187V30.6957C74.4811 30.7909 74.4737 30.888 74.4463 30.9797C74.4188 31.0713 74.3721 31.155 74.3097 31.2243C74.16 31.3161 73.9835 31.3444 73.8153 31.3035C72.5891 31.0921 71.3432 30.8754 70.1418 30.6535V32.3447C71.8755 32.6512 73.6093 32.9437 75.343 33.222C75.5295 33.242 75.704 33.3297 75.8374 33.4704C75.9498 33.6197 76.0077 33.8075 76.0006 33.9989V36.2557C76.0143 36.3513 76.0067 36.449 75.9783 36.5408C75.95 36.6327 75.9017 36.7161 75.8374 36.7842C75.7621 36.8267 75.6795 36.8529 75.5947 36.861C75.5098 36.8692 75.4242 36.8592 75.343 36.8317Z" fill="white"/>
<path d="M77.8644 37.2071C77.6716 37.1952 77.4883 37.1132 77.3452 36.9745C77.2301 36.8168 77.1737 36.6191 77.187 36.4196V34.1364C77.1749 34.0413 77.1828 33.9445 77.2102 33.8531C77.2376 33.7616 77.2837 33.6779 77.3452 33.6079C77.4222 33.5579 77.5078 33.5246 77.5969 33.5101C77.686 33.4956 77.7769 33.5001 77.8644 33.5234L79.7283 33.7982V27.4138L77.8644 27.102C77.6698 27.0814 77.4871 26.9922 77.3452 26.8483C77.231 26.6881 77.1748 26.4891 77.187 26.2881V23.9626C77.177 23.8724 77.186 23.781 77.2134 23.695C77.2408 23.6091 77.2858 23.5307 77.3452 23.4658C77.423 23.4176 77.509 23.3867 77.5982 23.3749C77.6874 23.363 77.778 23.3706 77.8644 23.3971C80.5391 23.8886 83.2139 24.3379 85.8886 24.7131C86.0804 24.7255 86.2629 24.8054 86.4077 24.9404C86.52 25.0895 86.5763 25.2778 86.5659 25.4689V27.7256C86.5745 27.8149 86.5648 27.9051 86.5375 27.99C86.5102 28.0749 86.4659 28.1524 86.4077 28.2171C86.2521 28.3178 86.066 28.3501 85.8886 28.307C85.2805 28.233 84.6724 28.1484 84.0593 28.0639V34.406L85.8886 34.6068C86.0797 34.6138 86.2628 34.6903 86.4077 34.8235C86.5226 34.9711 86.5793 35.1606 86.5659 35.352V37.5665C86.5749 37.6566 86.5654 37.7477 86.5381 37.8335C86.5108 37.9193 86.4663 37.9977 86.4077 38.0633C86.2543 38.1697 86.0686 38.2094 85.8886 38.1742C83.2139 37.8888 80.5391 37.577 77.8644 37.2071Z" fill="white"/>
<path d="M94.5309 38.6869C93.519 38.6622 92.5022 38.6217 91.4804 38.5653C91.3016 38.5653 91.1277 38.5022 90.986 38.3856C90.9277 38.3135 90.8836 38.2294 90.8564 38.1386C90.8293 38.0478 90.8195 37.9521 90.8278 37.8571V28.8566C89.9032 28.772 88.9836 28.6769 88.0591 28.5712C87.8599 28.5804 87.6645 28.5108 87.5103 28.3757C87.3954 28.2281 87.3387 28.0386 87.3521 27.8472V25.601C87.3425 25.5116 87.3517 25.4211 87.3791 25.3361C87.4064 25.251 87.4513 25.1736 87.5103 25.1095C87.6659 25.0088 87.852 24.9765 88.0294 25.0196C91.3469 25.4319 94.6595 25.7278 97.9769 25.8494C98.1549 25.8443 98.3292 25.9039 98.4713 26.0185C98.53 26.0842 98.5748 26.1625 98.603 26.2481C98.6311 26.3338 98.6418 26.4249 98.6345 26.5153V28.6769C98.6424 28.7658 98.6318 28.8554 98.6036 28.9395C98.5754 29.0235 98.5303 29.0999 98.4713 29.1631C98.3278 29.2724 98.1524 29.323 97.9769 29.3058C97.0524 29.2794 96.1278 29.2424 95.2082 29.1949V38.0474C95.2166 38.1379 95.2063 38.2293 95.1781 38.3151C95.1499 38.4009 95.1045 38.4791 95.0451 38.5442C94.896 38.658 94.7129 38.7088 94.5309 38.6869Z" fill="white"/>
</g>
<defs>
<clipPath id="clip0">
<rect width="126" height="52" fill="white"/>
</clipPath>
</defs>
</svg>
